%TF.GenerationSoftware,KiCad,Pcbnew,8.0.6*%
%TF.CreationDate,2025-01-07T17:27:52+02:00*%
%TF.ProjectId,SVI-328-MegaROM,5356492d-3332-4382-9d4d-656761524f4d,1.0*%
%TF.SameCoordinates,Original*%
%TF.FileFunction,Soldermask,Top*%
%TF.FilePolarity,Negative*%
%FSLAX46Y46*%
G04 Gerber Fmt 4.6, Leading zero omitted, Abs format (unit mm)*
G04 Created by KiCad (PCBNEW 8.0.6) date 2025-01-07 17:27:52*
%MOMM*%
%LPD*%
G01*
G04 APERTURE LIST*
%ADD10O,1.600000X1.600000*%
%ADD11C,1.600000*%
%ADD12R,1.600000X1.600000*%
%ADD13R,1.500000X11.000000*%
G04 APERTURE END LIST*
D10*
%TO.C,R2*%
X117880000Y-115000000D03*
D11*
X125500000Y-115000000D03*
%TD*%
%TO.C,R1*%
X117880000Y-121500000D03*
D10*
X125500000Y-121500000D03*
%TD*%
D12*
%TO.C,U2*%
X148740000Y-114500000D03*
D10*
X146200000Y-114500000D03*
X143660000Y-114500000D03*
X141120000Y-114500000D03*
X138580000Y-114500000D03*
X136040000Y-114500000D03*
X133500000Y-114500000D03*
X130960000Y-114500000D03*
X130960000Y-122120000D03*
X133500000Y-122120000D03*
X136040000Y-122120000D03*
X138580000Y-122120000D03*
X141120000Y-122120000D03*
X143660000Y-122120000D03*
X146200000Y-122120000D03*
X148740000Y-122120000D03*
%TD*%
D12*
%TO.C,U1*%
X152900000Y-127260000D03*
D10*
X150360000Y-127260000D03*
X147820000Y-127260000D03*
X145280000Y-127260000D03*
X142740000Y-127260000D03*
X140200000Y-127260000D03*
X137660000Y-127260000D03*
X135120000Y-127260000D03*
X132580000Y-127260000D03*
X130040000Y-127260000D03*
X127500000Y-127260000D03*
X124960000Y-127260000D03*
X122420000Y-127260000D03*
X119880000Y-127260000D03*
X117340000Y-127260000D03*
X114800000Y-127260000D03*
X114800000Y-142500000D03*
X117340000Y-142500000D03*
X119880000Y-142500000D03*
X122420000Y-142500000D03*
X124960000Y-142500000D03*
X127500000Y-142500000D03*
X130040000Y-142500000D03*
X132580000Y-142500000D03*
X135120000Y-142500000D03*
X137660000Y-142500000D03*
X140200000Y-142500000D03*
X142740000Y-142500000D03*
X145280000Y-142500000D03*
X147820000Y-142500000D03*
X150360000Y-142500000D03*
X152900000Y-142500000D03*
%TD*%
D11*
%TO.C,C2*%
X112740000Y-121000000D03*
X112740000Y-116000000D03*
%TD*%
D13*
%TO.C,J1*%
X151808691Y-156000414D03*
X149268691Y-156000414D03*
X146728691Y-156000414D03*
X144188691Y-156000414D03*
X141648691Y-156000414D03*
X139108691Y-156000414D03*
X136568691Y-156000414D03*
X134028691Y-156000414D03*
X131488691Y-156000414D03*
X128948691Y-156000414D03*
X126408691Y-156000414D03*
X123868691Y-156000414D03*
X121328691Y-156000414D03*
X118788691Y-156000414D03*
X116248691Y-156000414D03*
%TD*%
D11*
%TO.C,C1*%
X154500000Y-122000000D03*
X154500000Y-117000000D03*
%TD*%
M02*
