%TF.GenerationSoftware,KiCad,Pcbnew,8.0.6*%
%TF.CreationDate,2025-01-07T17:27:52+02:00*%
%TF.ProjectId,SVI-328-MegaROM,5356492d-3332-4382-9d4d-656761524f4d,1.0*%
%TF.SameCoordinates,Original*%
%TF.FileFunction,Legend,Top*%
%TF.FilePolarity,Positive*%
%FSLAX46Y46*%
G04 Gerber Fmt 4.6, Leading zero omitted, Abs format (unit mm)*
G04 Created by KiCad (PCBNEW 8.0.6) date 2025-01-07 17:27:52*
%MOMM*%
%LPD*%
G01*
G04 APERTURE LIST*
%ADD10C,0.150000*%
%ADD11C,0.300000*%
%ADD12C,0.120000*%
G04 APERTURE END LIST*
D10*
X130620363Y-111094295D02*
X130887030Y-111894295D01*
X130887030Y-111894295D02*
X131153696Y-111094295D01*
X131725125Y-111856200D02*
X131648934Y-111894295D01*
X131648934Y-111894295D02*
X131496553Y-111894295D01*
X131496553Y-111894295D02*
X131420363Y-111856200D01*
X131420363Y-111856200D02*
X131382267Y-111780009D01*
X131382267Y-111780009D02*
X131382267Y-111475247D01*
X131382267Y-111475247D02*
X131420363Y-111399057D01*
X131420363Y-111399057D02*
X131496553Y-111360961D01*
X131496553Y-111360961D02*
X131648934Y-111360961D01*
X131648934Y-111360961D02*
X131725125Y-111399057D01*
X131725125Y-111399057D02*
X131763220Y-111475247D01*
X131763220Y-111475247D02*
X131763220Y-111551438D01*
X131763220Y-111551438D02*
X131382267Y-111627628D01*
X132106077Y-111894295D02*
X132106077Y-111360961D01*
X132106077Y-111513342D02*
X132144172Y-111437152D01*
X132144172Y-111437152D02*
X132182267Y-111399057D01*
X132182267Y-111399057D02*
X132258458Y-111360961D01*
X132258458Y-111360961D02*
X132334648Y-111360961D01*
X132563219Y-111856200D02*
X132639410Y-111894295D01*
X132639410Y-111894295D02*
X132791791Y-111894295D01*
X132791791Y-111894295D02*
X132867981Y-111856200D01*
X132867981Y-111856200D02*
X132906077Y-111780009D01*
X132906077Y-111780009D02*
X132906077Y-111741914D01*
X132906077Y-111741914D02*
X132867981Y-111665723D01*
X132867981Y-111665723D02*
X132791791Y-111627628D01*
X132791791Y-111627628D02*
X132677505Y-111627628D01*
X132677505Y-111627628D02*
X132601315Y-111589533D01*
X132601315Y-111589533D02*
X132563219Y-111513342D01*
X132563219Y-111513342D02*
X132563219Y-111475247D01*
X132563219Y-111475247D02*
X132601315Y-111399057D01*
X132601315Y-111399057D02*
X132677505Y-111360961D01*
X132677505Y-111360961D02*
X132791791Y-111360961D01*
X132791791Y-111360961D02*
X132867981Y-111399057D01*
X133248934Y-111894295D02*
X133248934Y-111360961D01*
X133248934Y-111094295D02*
X133210838Y-111132390D01*
X133210838Y-111132390D02*
X133248934Y-111170485D01*
X133248934Y-111170485D02*
X133287029Y-111132390D01*
X133287029Y-111132390D02*
X133248934Y-111094295D01*
X133248934Y-111094295D02*
X133248934Y-111170485D01*
X133744171Y-111894295D02*
X133667981Y-111856200D01*
X133667981Y-111856200D02*
X133629886Y-111818104D01*
X133629886Y-111818104D02*
X133591790Y-111741914D01*
X133591790Y-111741914D02*
X133591790Y-111513342D01*
X133591790Y-111513342D02*
X133629886Y-111437152D01*
X133629886Y-111437152D02*
X133667981Y-111399057D01*
X133667981Y-111399057D02*
X133744171Y-111360961D01*
X133744171Y-111360961D02*
X133858457Y-111360961D01*
X133858457Y-111360961D02*
X133934648Y-111399057D01*
X133934648Y-111399057D02*
X133972743Y-111437152D01*
X133972743Y-111437152D02*
X134010838Y-111513342D01*
X134010838Y-111513342D02*
X134010838Y-111741914D01*
X134010838Y-111741914D02*
X133972743Y-111818104D01*
X133972743Y-111818104D02*
X133934648Y-111856200D01*
X133934648Y-111856200D02*
X133858457Y-111894295D01*
X133858457Y-111894295D02*
X133744171Y-111894295D01*
X134353696Y-111360961D02*
X134353696Y-111894295D01*
X134353696Y-111437152D02*
X134391791Y-111399057D01*
X134391791Y-111399057D02*
X134467981Y-111360961D01*
X134467981Y-111360961D02*
X134582267Y-111360961D01*
X134582267Y-111360961D02*
X134658458Y-111399057D01*
X134658458Y-111399057D02*
X134696553Y-111475247D01*
X134696553Y-111475247D02*
X134696553Y-111894295D01*
X136106077Y-111894295D02*
X135648934Y-111894295D01*
X135877506Y-111894295D02*
X135877506Y-111094295D01*
X135877506Y-111094295D02*
X135801315Y-111208580D01*
X135801315Y-111208580D02*
X135725125Y-111284771D01*
X135725125Y-111284771D02*
X135648934Y-111322866D01*
X136448935Y-111818104D02*
X136487030Y-111856200D01*
X136487030Y-111856200D02*
X136448935Y-111894295D01*
X136448935Y-111894295D02*
X136410839Y-111856200D01*
X136410839Y-111856200D02*
X136448935Y-111818104D01*
X136448935Y-111818104D02*
X136448935Y-111894295D01*
X136982268Y-111094295D02*
X137058458Y-111094295D01*
X137058458Y-111094295D02*
X137134649Y-111132390D01*
X137134649Y-111132390D02*
X137172744Y-111170485D01*
X137172744Y-111170485D02*
X137210839Y-111246676D01*
X137210839Y-111246676D02*
X137248934Y-111399057D01*
X137248934Y-111399057D02*
X137248934Y-111589533D01*
X137248934Y-111589533D02*
X137210839Y-111741914D01*
X137210839Y-111741914D02*
X137172744Y-111818104D01*
X137172744Y-111818104D02*
X137134649Y-111856200D01*
X137134649Y-111856200D02*
X137058458Y-111894295D01*
X137058458Y-111894295D02*
X136982268Y-111894295D01*
X136982268Y-111894295D02*
X136906077Y-111856200D01*
X136906077Y-111856200D02*
X136867982Y-111818104D01*
X136867982Y-111818104D02*
X136829887Y-111741914D01*
X136829887Y-111741914D02*
X136791791Y-111589533D01*
X136791791Y-111589533D02*
X136791791Y-111399057D01*
X136791791Y-111399057D02*
X136829887Y-111246676D01*
X136829887Y-111246676D02*
X136867982Y-111170485D01*
X136867982Y-111170485D02*
X136906077Y-111132390D01*
X136906077Y-111132390D02*
X136982268Y-111094295D01*
X124996551Y-109869819D02*
X124996551Y-108869819D01*
X124996551Y-108869819D02*
X125329884Y-109584104D01*
X125329884Y-109584104D02*
X125663217Y-108869819D01*
X125663217Y-108869819D02*
X125663217Y-109869819D01*
X126567979Y-109869819D02*
X126567979Y-109346009D01*
X126567979Y-109346009D02*
X126520360Y-109250771D01*
X126520360Y-109250771D02*
X126425122Y-109203152D01*
X126425122Y-109203152D02*
X126234646Y-109203152D01*
X126234646Y-109203152D02*
X126139408Y-109250771D01*
X126567979Y-109822200D02*
X126472741Y-109869819D01*
X126472741Y-109869819D02*
X126234646Y-109869819D01*
X126234646Y-109869819D02*
X126139408Y-109822200D01*
X126139408Y-109822200D02*
X126091789Y-109726961D01*
X126091789Y-109726961D02*
X126091789Y-109631723D01*
X126091789Y-109631723D02*
X126139408Y-109536485D01*
X126139408Y-109536485D02*
X126234646Y-109488866D01*
X126234646Y-109488866D02*
X126472741Y-109488866D01*
X126472741Y-109488866D02*
X126567979Y-109441247D01*
X127044170Y-109869819D02*
X127044170Y-109203152D01*
X127044170Y-109393628D02*
X127091789Y-109298390D01*
X127091789Y-109298390D02*
X127139408Y-109250771D01*
X127139408Y-109250771D02*
X127234646Y-109203152D01*
X127234646Y-109203152D02*
X127329884Y-109203152D01*
X127663218Y-109869819D02*
X127663218Y-108869819D01*
X127758456Y-109488866D02*
X128044170Y-109869819D01*
X128044170Y-109203152D02*
X127663218Y-109584104D01*
X128901313Y-109203152D02*
X128901313Y-109869819D01*
X128472742Y-109203152D02*
X128472742Y-109726961D01*
X128472742Y-109726961D02*
X128520361Y-109822200D01*
X128520361Y-109822200D02*
X128615599Y-109869819D01*
X128615599Y-109869819D02*
X128758456Y-109869819D01*
X128758456Y-109869819D02*
X128853694Y-109822200D01*
X128853694Y-109822200D02*
X128901313Y-109774580D01*
X129329885Y-109822200D02*
X129425123Y-109869819D01*
X129425123Y-109869819D02*
X129615599Y-109869819D01*
X129615599Y-109869819D02*
X129710837Y-109822200D01*
X129710837Y-109822200D02*
X129758456Y-109726961D01*
X129758456Y-109726961D02*
X129758456Y-109679342D01*
X129758456Y-109679342D02*
X129710837Y-109584104D01*
X129710837Y-109584104D02*
X129615599Y-109536485D01*
X129615599Y-109536485D02*
X129472742Y-109536485D01*
X129472742Y-109536485D02*
X129377504Y-109488866D01*
X129377504Y-109488866D02*
X129329885Y-109393628D01*
X129329885Y-109393628D02*
X129329885Y-109346009D01*
X129329885Y-109346009D02*
X129377504Y-109250771D01*
X129377504Y-109250771D02*
X129472742Y-109203152D01*
X129472742Y-109203152D02*
X129615599Y-109203152D01*
X129615599Y-109203152D02*
X129710837Y-109250771D01*
X131520361Y-109869819D02*
X131187028Y-109393628D01*
X130948933Y-109869819D02*
X130948933Y-108869819D01*
X130948933Y-108869819D02*
X131329885Y-108869819D01*
X131329885Y-108869819D02*
X131425123Y-108917438D01*
X131425123Y-108917438D02*
X131472742Y-108965057D01*
X131472742Y-108965057D02*
X131520361Y-109060295D01*
X131520361Y-109060295D02*
X131520361Y-109203152D01*
X131520361Y-109203152D02*
X131472742Y-109298390D01*
X131472742Y-109298390D02*
X131425123Y-109346009D01*
X131425123Y-109346009D02*
X131329885Y-109393628D01*
X131329885Y-109393628D02*
X130948933Y-109393628D01*
X132377504Y-109869819D02*
X132377504Y-109346009D01*
X132377504Y-109346009D02*
X132329885Y-109250771D01*
X132329885Y-109250771D02*
X132234647Y-109203152D01*
X132234647Y-109203152D02*
X132044171Y-109203152D01*
X132044171Y-109203152D02*
X131948933Y-109250771D01*
X132377504Y-109822200D02*
X132282266Y-109869819D01*
X132282266Y-109869819D02*
X132044171Y-109869819D01*
X132044171Y-109869819D02*
X131948933Y-109822200D01*
X131948933Y-109822200D02*
X131901314Y-109726961D01*
X131901314Y-109726961D02*
X131901314Y-109631723D01*
X131901314Y-109631723D02*
X131948933Y-109536485D01*
X131948933Y-109536485D02*
X132044171Y-109488866D01*
X132044171Y-109488866D02*
X132282266Y-109488866D01*
X132282266Y-109488866D02*
X132377504Y-109441247D01*
X133282266Y-109203152D02*
X133282266Y-109869819D01*
X132853695Y-109203152D02*
X132853695Y-109726961D01*
X132853695Y-109726961D02*
X132901314Y-109822200D01*
X132901314Y-109822200D02*
X132996552Y-109869819D01*
X132996552Y-109869819D02*
X133139409Y-109869819D01*
X133139409Y-109869819D02*
X133234647Y-109822200D01*
X133234647Y-109822200D02*
X133282266Y-109774580D01*
X133615600Y-109203152D02*
X133996552Y-109203152D01*
X133758457Y-108869819D02*
X133758457Y-109726961D01*
X133758457Y-109726961D02*
X133806076Y-109822200D01*
X133806076Y-109822200D02*
X133901314Y-109869819D01*
X133901314Y-109869819D02*
X133996552Y-109869819D01*
X134472743Y-109869819D02*
X134377505Y-109822200D01*
X134377505Y-109822200D02*
X134329886Y-109774580D01*
X134329886Y-109774580D02*
X134282267Y-109679342D01*
X134282267Y-109679342D02*
X134282267Y-109393628D01*
X134282267Y-109393628D02*
X134329886Y-109298390D01*
X134329886Y-109298390D02*
X134377505Y-109250771D01*
X134377505Y-109250771D02*
X134472743Y-109203152D01*
X134472743Y-109203152D02*
X134615600Y-109203152D01*
X134615600Y-109203152D02*
X134710838Y-109250771D01*
X134710838Y-109250771D02*
X134758457Y-109298390D01*
X134758457Y-109298390D02*
X134806076Y-109393628D01*
X134806076Y-109393628D02*
X134806076Y-109679342D01*
X134806076Y-109679342D02*
X134758457Y-109774580D01*
X134758457Y-109774580D02*
X134710838Y-109822200D01*
X134710838Y-109822200D02*
X134615600Y-109869819D01*
X134615600Y-109869819D02*
X134472743Y-109869819D01*
X135234648Y-109203152D02*
X135234648Y-110203152D01*
X135234648Y-109250771D02*
X135329886Y-109203152D01*
X135329886Y-109203152D02*
X135520362Y-109203152D01*
X135520362Y-109203152D02*
X135615600Y-109250771D01*
X135615600Y-109250771D02*
X135663219Y-109298390D01*
X135663219Y-109298390D02*
X135710838Y-109393628D01*
X135710838Y-109393628D02*
X135710838Y-109679342D01*
X135710838Y-109679342D02*
X135663219Y-109774580D01*
X135663219Y-109774580D02*
X135615600Y-109822200D01*
X135615600Y-109822200D02*
X135520362Y-109869819D01*
X135520362Y-109869819D02*
X135329886Y-109869819D01*
X135329886Y-109869819D02*
X135234648Y-109822200D01*
X136567981Y-109203152D02*
X136567981Y-109869819D01*
X136139410Y-109203152D02*
X136139410Y-109726961D01*
X136139410Y-109726961D02*
X136187029Y-109822200D01*
X136187029Y-109822200D02*
X136282267Y-109869819D01*
X136282267Y-109869819D02*
X136425124Y-109869819D01*
X136425124Y-109869819D02*
X136520362Y-109822200D01*
X136520362Y-109822200D02*
X136567981Y-109774580D01*
X137044172Y-109869819D02*
X137044172Y-109203152D01*
X137044172Y-109393628D02*
X137091791Y-109298390D01*
X137091791Y-109298390D02*
X137139410Y-109250771D01*
X137139410Y-109250771D02*
X137234648Y-109203152D01*
X137234648Y-109203152D02*
X137329886Y-109203152D01*
X137806077Y-109869819D02*
X137710839Y-109822200D01*
X137710839Y-109822200D02*
X137663220Y-109774580D01*
X137663220Y-109774580D02*
X137615601Y-109679342D01*
X137615601Y-109679342D02*
X137615601Y-109393628D01*
X137615601Y-109393628D02*
X137663220Y-109298390D01*
X137663220Y-109298390D02*
X137710839Y-109250771D01*
X137710839Y-109250771D02*
X137806077Y-109203152D01*
X137806077Y-109203152D02*
X137948934Y-109203152D01*
X137948934Y-109203152D02*
X138044172Y-109250771D01*
X138044172Y-109250771D02*
X138091791Y-109298390D01*
X138091791Y-109298390D02*
X138139410Y-109393628D01*
X138139410Y-109393628D02*
X138139410Y-109679342D01*
X138139410Y-109679342D02*
X138091791Y-109774580D01*
X138091791Y-109774580D02*
X138044172Y-109822200D01*
X138044172Y-109822200D02*
X137948934Y-109869819D01*
X137948934Y-109869819D02*
X137806077Y-109869819D01*
X139282268Y-108965057D02*
X139329887Y-108917438D01*
X139329887Y-108917438D02*
X139425125Y-108869819D01*
X139425125Y-108869819D02*
X139663220Y-108869819D01*
X139663220Y-108869819D02*
X139758458Y-108917438D01*
X139758458Y-108917438D02*
X139806077Y-108965057D01*
X139806077Y-108965057D02*
X139853696Y-109060295D01*
X139853696Y-109060295D02*
X139853696Y-109155533D01*
X139853696Y-109155533D02*
X139806077Y-109298390D01*
X139806077Y-109298390D02*
X139234649Y-109869819D01*
X139234649Y-109869819D02*
X139853696Y-109869819D01*
X140472744Y-108869819D02*
X140567982Y-108869819D01*
X140567982Y-108869819D02*
X140663220Y-108917438D01*
X140663220Y-108917438D02*
X140710839Y-108965057D01*
X140710839Y-108965057D02*
X140758458Y-109060295D01*
X140758458Y-109060295D02*
X140806077Y-109250771D01*
X140806077Y-109250771D02*
X140806077Y-109488866D01*
X140806077Y-109488866D02*
X140758458Y-109679342D01*
X140758458Y-109679342D02*
X140710839Y-109774580D01*
X140710839Y-109774580D02*
X140663220Y-109822200D01*
X140663220Y-109822200D02*
X140567982Y-109869819D01*
X140567982Y-109869819D02*
X140472744Y-109869819D01*
X140472744Y-109869819D02*
X140377506Y-109822200D01*
X140377506Y-109822200D02*
X140329887Y-109774580D01*
X140329887Y-109774580D02*
X140282268Y-109679342D01*
X140282268Y-109679342D02*
X140234649Y-109488866D01*
X140234649Y-109488866D02*
X140234649Y-109250771D01*
X140234649Y-109250771D02*
X140282268Y-109060295D01*
X140282268Y-109060295D02*
X140329887Y-108965057D01*
X140329887Y-108965057D02*
X140377506Y-108917438D01*
X140377506Y-108917438D02*
X140472744Y-108869819D01*
X141187030Y-108965057D02*
X141234649Y-108917438D01*
X141234649Y-108917438D02*
X141329887Y-108869819D01*
X141329887Y-108869819D02*
X141567982Y-108869819D01*
X141567982Y-108869819D02*
X141663220Y-108917438D01*
X141663220Y-108917438D02*
X141710839Y-108965057D01*
X141710839Y-108965057D02*
X141758458Y-109060295D01*
X141758458Y-109060295D02*
X141758458Y-109155533D01*
X141758458Y-109155533D02*
X141710839Y-109298390D01*
X141710839Y-109298390D02*
X141139411Y-109869819D01*
X141139411Y-109869819D02*
X141758458Y-109869819D01*
X142663220Y-108869819D02*
X142187030Y-108869819D01*
X142187030Y-108869819D02*
X142139411Y-109346009D01*
X142139411Y-109346009D02*
X142187030Y-109298390D01*
X142187030Y-109298390D02*
X142282268Y-109250771D01*
X142282268Y-109250771D02*
X142520363Y-109250771D01*
X142520363Y-109250771D02*
X142615601Y-109298390D01*
X142615601Y-109298390D02*
X142663220Y-109346009D01*
X142663220Y-109346009D02*
X142710839Y-109441247D01*
X142710839Y-109441247D02*
X142710839Y-109679342D01*
X142710839Y-109679342D02*
X142663220Y-109774580D01*
X142663220Y-109774580D02*
X142615601Y-109822200D01*
X142615601Y-109822200D02*
X142520363Y-109869819D01*
X142520363Y-109869819D02*
X142282268Y-109869819D01*
X142282268Y-109869819D02*
X142187030Y-109822200D01*
X142187030Y-109822200D02*
X142139411Y-109774580D01*
D11*
X123678572Y-107229400D02*
X123892858Y-107300828D01*
X123892858Y-107300828D02*
X124250000Y-107300828D01*
X124250000Y-107300828D02*
X124392858Y-107229400D01*
X124392858Y-107229400D02*
X124464286Y-107157971D01*
X124464286Y-107157971D02*
X124535715Y-107015114D01*
X124535715Y-107015114D02*
X124535715Y-106872257D01*
X124535715Y-106872257D02*
X124464286Y-106729400D01*
X124464286Y-106729400D02*
X124392858Y-106657971D01*
X124392858Y-106657971D02*
X124250000Y-106586542D01*
X124250000Y-106586542D02*
X123964286Y-106515114D01*
X123964286Y-106515114D02*
X123821429Y-106443685D01*
X123821429Y-106443685D02*
X123750000Y-106372257D01*
X123750000Y-106372257D02*
X123678572Y-106229400D01*
X123678572Y-106229400D02*
X123678572Y-106086542D01*
X123678572Y-106086542D02*
X123750000Y-105943685D01*
X123750000Y-105943685D02*
X123821429Y-105872257D01*
X123821429Y-105872257D02*
X123964286Y-105800828D01*
X123964286Y-105800828D02*
X124321429Y-105800828D01*
X124321429Y-105800828D02*
X124535715Y-105872257D01*
X124964286Y-105800828D02*
X125464286Y-107300828D01*
X125464286Y-107300828D02*
X125964286Y-105800828D01*
X126464285Y-107300828D02*
X126464285Y-105800828D01*
X127178571Y-106729400D02*
X128321429Y-106729400D01*
X128892857Y-105800828D02*
X129821429Y-105800828D01*
X129821429Y-105800828D02*
X129321429Y-106372257D01*
X129321429Y-106372257D02*
X129535714Y-106372257D01*
X129535714Y-106372257D02*
X129678572Y-106443685D01*
X129678572Y-106443685D02*
X129750000Y-106515114D01*
X129750000Y-106515114D02*
X129821429Y-106657971D01*
X129821429Y-106657971D02*
X129821429Y-107015114D01*
X129821429Y-107015114D02*
X129750000Y-107157971D01*
X129750000Y-107157971D02*
X129678572Y-107229400D01*
X129678572Y-107229400D02*
X129535714Y-107300828D01*
X129535714Y-107300828D02*
X129107143Y-107300828D01*
X129107143Y-107300828D02*
X128964286Y-107229400D01*
X128964286Y-107229400D02*
X128892857Y-107157971D01*
X130392857Y-105943685D02*
X130464285Y-105872257D01*
X130464285Y-105872257D02*
X130607143Y-105800828D01*
X130607143Y-105800828D02*
X130964285Y-105800828D01*
X130964285Y-105800828D02*
X131107143Y-105872257D01*
X131107143Y-105872257D02*
X131178571Y-105943685D01*
X131178571Y-105943685D02*
X131250000Y-106086542D01*
X131250000Y-106086542D02*
X131250000Y-106229400D01*
X131250000Y-106229400D02*
X131178571Y-106443685D01*
X131178571Y-106443685D02*
X130321428Y-107300828D01*
X130321428Y-107300828D02*
X131250000Y-107300828D01*
X132107142Y-106443685D02*
X131964285Y-106372257D01*
X131964285Y-106372257D02*
X131892856Y-106300828D01*
X131892856Y-106300828D02*
X131821428Y-106157971D01*
X131821428Y-106157971D02*
X131821428Y-106086542D01*
X131821428Y-106086542D02*
X131892856Y-105943685D01*
X131892856Y-105943685D02*
X131964285Y-105872257D01*
X131964285Y-105872257D02*
X132107142Y-105800828D01*
X132107142Y-105800828D02*
X132392856Y-105800828D01*
X132392856Y-105800828D02*
X132535714Y-105872257D01*
X132535714Y-105872257D02*
X132607142Y-105943685D01*
X132607142Y-105943685D02*
X132678571Y-106086542D01*
X132678571Y-106086542D02*
X132678571Y-106157971D01*
X132678571Y-106157971D02*
X132607142Y-106300828D01*
X132607142Y-106300828D02*
X132535714Y-106372257D01*
X132535714Y-106372257D02*
X132392856Y-106443685D01*
X132392856Y-106443685D02*
X132107142Y-106443685D01*
X132107142Y-106443685D02*
X131964285Y-106515114D01*
X131964285Y-106515114D02*
X131892856Y-106586542D01*
X131892856Y-106586542D02*
X131821428Y-106729400D01*
X131821428Y-106729400D02*
X131821428Y-107015114D01*
X131821428Y-107015114D02*
X131892856Y-107157971D01*
X131892856Y-107157971D02*
X131964285Y-107229400D01*
X131964285Y-107229400D02*
X132107142Y-107300828D01*
X132107142Y-107300828D02*
X132392856Y-107300828D01*
X132392856Y-107300828D02*
X132535714Y-107229400D01*
X132535714Y-107229400D02*
X132607142Y-107157971D01*
X132607142Y-107157971D02*
X132678571Y-107015114D01*
X132678571Y-107015114D02*
X132678571Y-106729400D01*
X132678571Y-106729400D02*
X132607142Y-106586542D01*
X132607142Y-106586542D02*
X132535714Y-106515114D01*
X132535714Y-106515114D02*
X132392856Y-106443685D01*
X134464284Y-107300828D02*
X134464284Y-105800828D01*
X134464284Y-105800828D02*
X134964284Y-106872257D01*
X134964284Y-106872257D02*
X135464284Y-105800828D01*
X135464284Y-105800828D02*
X135464284Y-107300828D01*
X136749999Y-107229400D02*
X136607142Y-107300828D01*
X136607142Y-107300828D02*
X136321428Y-107300828D01*
X136321428Y-107300828D02*
X136178570Y-107229400D01*
X136178570Y-107229400D02*
X136107142Y-107086542D01*
X136107142Y-107086542D02*
X136107142Y-106515114D01*
X136107142Y-106515114D02*
X136178570Y-106372257D01*
X136178570Y-106372257D02*
X136321428Y-106300828D01*
X136321428Y-106300828D02*
X136607142Y-106300828D01*
X136607142Y-106300828D02*
X136749999Y-106372257D01*
X136749999Y-106372257D02*
X136821428Y-106515114D01*
X136821428Y-106515114D02*
X136821428Y-106657971D01*
X136821428Y-106657971D02*
X136107142Y-106800828D01*
X138107142Y-106300828D02*
X138107142Y-107515114D01*
X138107142Y-107515114D02*
X138035713Y-107657971D01*
X138035713Y-107657971D02*
X137964284Y-107729400D01*
X137964284Y-107729400D02*
X137821427Y-107800828D01*
X137821427Y-107800828D02*
X137607142Y-107800828D01*
X137607142Y-107800828D02*
X137464284Y-107729400D01*
X138107142Y-107229400D02*
X137964284Y-107300828D01*
X137964284Y-107300828D02*
X137678570Y-107300828D01*
X137678570Y-107300828D02*
X137535713Y-107229400D01*
X137535713Y-107229400D02*
X137464284Y-107157971D01*
X137464284Y-107157971D02*
X137392856Y-107015114D01*
X137392856Y-107015114D02*
X137392856Y-106586542D01*
X137392856Y-106586542D02*
X137464284Y-106443685D01*
X137464284Y-106443685D02*
X137535713Y-106372257D01*
X137535713Y-106372257D02*
X137678570Y-106300828D01*
X137678570Y-106300828D02*
X137964284Y-106300828D01*
X137964284Y-106300828D02*
X138107142Y-106372257D01*
X139464285Y-107300828D02*
X139464285Y-106515114D01*
X139464285Y-106515114D02*
X139392856Y-106372257D01*
X139392856Y-106372257D02*
X139249999Y-106300828D01*
X139249999Y-106300828D02*
X138964285Y-106300828D01*
X138964285Y-106300828D02*
X138821427Y-106372257D01*
X139464285Y-107229400D02*
X139321427Y-107300828D01*
X139321427Y-107300828D02*
X138964285Y-107300828D01*
X138964285Y-107300828D02*
X138821427Y-107229400D01*
X138821427Y-107229400D02*
X138749999Y-107086542D01*
X138749999Y-107086542D02*
X138749999Y-106943685D01*
X138749999Y-106943685D02*
X138821427Y-106800828D01*
X138821427Y-106800828D02*
X138964285Y-106729400D01*
X138964285Y-106729400D02*
X139321427Y-106729400D01*
X139321427Y-106729400D02*
X139464285Y-106657971D01*
X141035713Y-107300828D02*
X140535713Y-106586542D01*
X140178570Y-107300828D02*
X140178570Y-105800828D01*
X140178570Y-105800828D02*
X140749999Y-105800828D01*
X140749999Y-105800828D02*
X140892856Y-105872257D01*
X140892856Y-105872257D02*
X140964285Y-105943685D01*
X140964285Y-105943685D02*
X141035713Y-106086542D01*
X141035713Y-106086542D02*
X141035713Y-106300828D01*
X141035713Y-106300828D02*
X140964285Y-106443685D01*
X140964285Y-106443685D02*
X140892856Y-106515114D01*
X140892856Y-106515114D02*
X140749999Y-106586542D01*
X140749999Y-106586542D02*
X140178570Y-106586542D01*
X141964285Y-105800828D02*
X142249999Y-105800828D01*
X142249999Y-105800828D02*
X142392856Y-105872257D01*
X142392856Y-105872257D02*
X142535713Y-106015114D01*
X142535713Y-106015114D02*
X142607142Y-106300828D01*
X142607142Y-106300828D02*
X142607142Y-106800828D01*
X142607142Y-106800828D02*
X142535713Y-107086542D01*
X142535713Y-107086542D02*
X142392856Y-107229400D01*
X142392856Y-107229400D02*
X142249999Y-107300828D01*
X142249999Y-107300828D02*
X141964285Y-107300828D01*
X141964285Y-107300828D02*
X141821428Y-107229400D01*
X141821428Y-107229400D02*
X141678570Y-107086542D01*
X141678570Y-107086542D02*
X141607142Y-106800828D01*
X141607142Y-106800828D02*
X141607142Y-106300828D01*
X141607142Y-106300828D02*
X141678570Y-106015114D01*
X141678570Y-106015114D02*
X141821428Y-105872257D01*
X141821428Y-105872257D02*
X141964285Y-105800828D01*
X143249999Y-107300828D02*
X143249999Y-105800828D01*
X143249999Y-105800828D02*
X143749999Y-106872257D01*
X143749999Y-106872257D02*
X144249999Y-105800828D01*
X144249999Y-105800828D02*
X144249999Y-107300828D01*
D10*
X121523333Y-117824819D02*
X121190000Y-117348628D01*
X120951905Y-117824819D02*
X120951905Y-116824819D01*
X120951905Y-116824819D02*
X121332857Y-116824819D01*
X121332857Y-116824819D02*
X121428095Y-116872438D01*
X121428095Y-116872438D02*
X121475714Y-116920057D01*
X121475714Y-116920057D02*
X121523333Y-117015295D01*
X121523333Y-117015295D02*
X121523333Y-117158152D01*
X121523333Y-117158152D02*
X121475714Y-117253390D01*
X121475714Y-117253390D02*
X121428095Y-117301009D01*
X121428095Y-117301009D02*
X121332857Y-117348628D01*
X121332857Y-117348628D02*
X120951905Y-117348628D01*
X121904286Y-116920057D02*
X121951905Y-116872438D01*
X121951905Y-116872438D02*
X122047143Y-116824819D01*
X122047143Y-116824819D02*
X122285238Y-116824819D01*
X122285238Y-116824819D02*
X122380476Y-116872438D01*
X122380476Y-116872438D02*
X122428095Y-116920057D01*
X122428095Y-116920057D02*
X122475714Y-117015295D01*
X122475714Y-117015295D02*
X122475714Y-117110533D01*
X122475714Y-117110533D02*
X122428095Y-117253390D01*
X122428095Y-117253390D02*
X121856667Y-117824819D01*
X121856667Y-117824819D02*
X122475714Y-117824819D01*
X121523333Y-119584819D02*
X121190000Y-119108628D01*
X120951905Y-119584819D02*
X120951905Y-118584819D01*
X120951905Y-118584819D02*
X121332857Y-118584819D01*
X121332857Y-118584819D02*
X121428095Y-118632438D01*
X121428095Y-118632438D02*
X121475714Y-118680057D01*
X121475714Y-118680057D02*
X121523333Y-118775295D01*
X121523333Y-118775295D02*
X121523333Y-118918152D01*
X121523333Y-118918152D02*
X121475714Y-119013390D01*
X121475714Y-119013390D02*
X121428095Y-119061009D01*
X121428095Y-119061009D02*
X121332857Y-119108628D01*
X121332857Y-119108628D02*
X120951905Y-119108628D01*
X122475714Y-119584819D02*
X121904286Y-119584819D01*
X122190000Y-119584819D02*
X122190000Y-118584819D01*
X122190000Y-118584819D02*
X122094762Y-118727676D01*
X122094762Y-118727676D02*
X121999524Y-118822914D01*
X121999524Y-118822914D02*
X121904286Y-118870533D01*
X150524819Y-119071904D02*
X151334342Y-119071904D01*
X151334342Y-119071904D02*
X151429580Y-119024285D01*
X151429580Y-119024285D02*
X151477200Y-118976666D01*
X151477200Y-118976666D02*
X151524819Y-118881428D01*
X151524819Y-118881428D02*
X151524819Y-118690952D01*
X151524819Y-118690952D02*
X151477200Y-118595714D01*
X151477200Y-118595714D02*
X151429580Y-118548095D01*
X151429580Y-118548095D02*
X151334342Y-118500476D01*
X151334342Y-118500476D02*
X150524819Y-118500476D01*
X150620057Y-118071904D02*
X150572438Y-118024285D01*
X150572438Y-118024285D02*
X150524819Y-117929047D01*
X150524819Y-117929047D02*
X150524819Y-117690952D01*
X150524819Y-117690952D02*
X150572438Y-117595714D01*
X150572438Y-117595714D02*
X150620057Y-117548095D01*
X150620057Y-117548095D02*
X150715295Y-117500476D01*
X150715295Y-117500476D02*
X150810533Y-117500476D01*
X150810533Y-117500476D02*
X150953390Y-117548095D01*
X150953390Y-117548095D02*
X151524819Y-118119523D01*
X151524819Y-118119523D02*
X151524819Y-117500476D01*
X154684819Y-135641904D02*
X155494342Y-135641904D01*
X155494342Y-135641904D02*
X155589580Y-135594285D01*
X155589580Y-135594285D02*
X155637200Y-135546666D01*
X155637200Y-135546666D02*
X155684819Y-135451428D01*
X155684819Y-135451428D02*
X155684819Y-135260952D01*
X155684819Y-135260952D02*
X155637200Y-135165714D01*
X155637200Y-135165714D02*
X155589580Y-135118095D01*
X155589580Y-135118095D02*
X155494342Y-135070476D01*
X155494342Y-135070476D02*
X154684819Y-135070476D01*
X155684819Y-134070476D02*
X155684819Y-134641904D01*
X155684819Y-134356190D02*
X154684819Y-134356190D01*
X154684819Y-134356190D02*
X154827676Y-134451428D01*
X154827676Y-134451428D02*
X154922914Y-134546666D01*
X154922914Y-134546666D02*
X154970533Y-134641904D01*
X115299580Y-118666666D02*
X115347200Y-118714285D01*
X115347200Y-118714285D02*
X115394819Y-118857142D01*
X115394819Y-118857142D02*
X115394819Y-118952380D01*
X115394819Y-118952380D02*
X115347200Y-119095237D01*
X115347200Y-119095237D02*
X115251961Y-119190475D01*
X115251961Y-119190475D02*
X115156723Y-119238094D01*
X115156723Y-119238094D02*
X114966247Y-119285713D01*
X114966247Y-119285713D02*
X114823390Y-119285713D01*
X114823390Y-119285713D02*
X114632914Y-119238094D01*
X114632914Y-119238094D02*
X114537676Y-119190475D01*
X114537676Y-119190475D02*
X114442438Y-119095237D01*
X114442438Y-119095237D02*
X114394819Y-118952380D01*
X114394819Y-118952380D02*
X114394819Y-118857142D01*
X114394819Y-118857142D02*
X114442438Y-118714285D01*
X114442438Y-118714285D02*
X114490057Y-118666666D01*
X114490057Y-118285713D02*
X114442438Y-118238094D01*
X114442438Y-118238094D02*
X114394819Y-118142856D01*
X114394819Y-118142856D02*
X114394819Y-117904761D01*
X114394819Y-117904761D02*
X114442438Y-117809523D01*
X114442438Y-117809523D02*
X114490057Y-117761904D01*
X114490057Y-117761904D02*
X114585295Y-117714285D01*
X114585295Y-117714285D02*
X114680533Y-117714285D01*
X114680533Y-117714285D02*
X114823390Y-117761904D01*
X114823390Y-117761904D02*
X115394819Y-118333332D01*
X115394819Y-118333332D02*
X115394819Y-117714285D01*
X154116033Y-120700000D02*
X154116033Y-120633333D01*
X154116033Y-120633333D02*
X154149366Y-120566666D01*
X154149366Y-120566666D02*
X154182700Y-120533333D01*
X154182700Y-120533333D02*
X154249366Y-120500000D01*
X154249366Y-120500000D02*
X154382700Y-120466666D01*
X154382700Y-120466666D02*
X154549366Y-120466666D01*
X154549366Y-120466666D02*
X154682700Y-120500000D01*
X154682700Y-120500000D02*
X154749366Y-120533333D01*
X154749366Y-120533333D02*
X154782700Y-120566666D01*
X154782700Y-120566666D02*
X154816033Y-120633333D01*
X154816033Y-120633333D02*
X154816033Y-120700000D01*
X154816033Y-120700000D02*
X154782700Y-120766666D01*
X154782700Y-120766666D02*
X154749366Y-120800000D01*
X154749366Y-120800000D02*
X154682700Y-120833333D01*
X154682700Y-120833333D02*
X154549366Y-120866666D01*
X154549366Y-120866666D02*
X154382700Y-120866666D01*
X154382700Y-120866666D02*
X154249366Y-120833333D01*
X154249366Y-120833333D02*
X154182700Y-120800000D01*
X154182700Y-120800000D02*
X154149366Y-120766666D01*
X154149366Y-120766666D02*
X154116033Y-120700000D01*
X154749366Y-120166666D02*
X154782700Y-120133333D01*
X154782700Y-120133333D02*
X154816033Y-120166666D01*
X154816033Y-120166666D02*
X154782700Y-120199999D01*
X154782700Y-120199999D02*
X154749366Y-120166666D01*
X154749366Y-120166666D02*
X154816033Y-120166666D01*
X154816033Y-119466666D02*
X154816033Y-119866666D01*
X154816033Y-119666666D02*
X154116033Y-119666666D01*
X154116033Y-119666666D02*
X154216033Y-119733333D01*
X154216033Y-119733333D02*
X154282700Y-119800000D01*
X154282700Y-119800000D02*
X154316033Y-119866666D01*
X154349366Y-119166666D02*
X155049366Y-119166666D01*
X154716033Y-118833333D02*
X154782700Y-118799999D01*
X154782700Y-118799999D02*
X154816033Y-118733333D01*
X154716033Y-119166666D02*
X154782700Y-119133333D01*
X154782700Y-119133333D02*
X154816033Y-119066666D01*
X154816033Y-119066666D02*
X154816033Y-118933333D01*
X154816033Y-118933333D02*
X154782700Y-118866666D01*
X154782700Y-118866666D02*
X154716033Y-118833333D01*
X154716033Y-118833333D02*
X154349366Y-118833333D01*
X154449366Y-118200000D02*
X154449366Y-118433333D01*
X154816033Y-118433333D02*
X154116033Y-118433333D01*
X154116033Y-118433333D02*
X154116033Y-118100000D01*
X156859580Y-119666666D02*
X156907200Y-119714285D01*
X156907200Y-119714285D02*
X156954819Y-119857142D01*
X156954819Y-119857142D02*
X156954819Y-119952380D01*
X156954819Y-119952380D02*
X156907200Y-120095237D01*
X156907200Y-120095237D02*
X156811961Y-120190475D01*
X156811961Y-120190475D02*
X156716723Y-120238094D01*
X156716723Y-120238094D02*
X156526247Y-120285713D01*
X156526247Y-120285713D02*
X156383390Y-120285713D01*
X156383390Y-120285713D02*
X156192914Y-120238094D01*
X156192914Y-120238094D02*
X156097676Y-120190475D01*
X156097676Y-120190475D02*
X156002438Y-120095237D01*
X156002438Y-120095237D02*
X155954819Y-119952380D01*
X155954819Y-119952380D02*
X155954819Y-119857142D01*
X155954819Y-119857142D02*
X156002438Y-119714285D01*
X156002438Y-119714285D02*
X156050057Y-119666666D01*
X156954819Y-118714285D02*
X156954819Y-119285713D01*
X156954819Y-118999999D02*
X155954819Y-118999999D01*
X155954819Y-118999999D02*
X156097676Y-119095237D01*
X156097676Y-119095237D02*
X156192914Y-119190475D01*
X156192914Y-119190475D02*
X156240533Y-119285713D01*
D12*
%TO.C,R2*%
X118420000Y-113630000D02*
X118420000Y-113960000D01*
X118420000Y-116370000D02*
X118420000Y-116040000D01*
X124960000Y-113630000D02*
X118420000Y-113630000D01*
X124960000Y-113960000D02*
X124960000Y-113630000D01*
X124960000Y-116040000D02*
X124960000Y-116370000D01*
X124960000Y-116370000D02*
X118420000Y-116370000D01*
%TO.C,R1*%
X118420000Y-120130000D02*
X124960000Y-120130000D01*
X118420000Y-120460000D02*
X118420000Y-120130000D01*
X118420000Y-122540000D02*
X118420000Y-122870000D01*
X118420000Y-122870000D02*
X124960000Y-122870000D01*
X124960000Y-120130000D02*
X124960000Y-120460000D01*
X124960000Y-122870000D02*
X124960000Y-122540000D01*
%TO.C,U2*%
X150070000Y-115660000D02*
X129630000Y-115660000D01*
X129630000Y-115660000D02*
X129630000Y-120960000D01*
X150070000Y-117310000D02*
X150070000Y-115660000D01*
X150070000Y-120960000D02*
X150070000Y-119310000D01*
X129630000Y-120960000D02*
X150070000Y-120960000D01*
X150070000Y-119310000D02*
G75*
G02*
X150070000Y-117310000I0J1000000D01*
G01*
%TO.C,U1*%
X154230000Y-128420000D02*
X113470000Y-128420000D01*
X113470000Y-128420000D02*
X113470000Y-141340000D01*
X154230000Y-133880000D02*
X154230000Y-128420000D01*
X154230000Y-141340000D02*
X154230000Y-135880000D01*
X113470000Y-141340000D02*
X154230000Y-141340000D01*
X154230000Y-135880000D02*
G75*
G02*
X154230000Y-133880000I0J1000000D01*
G01*
%TO.C,C2*%
X111685000Y-120770000D02*
X111670000Y-120770000D01*
X113810000Y-120770000D02*
X113795000Y-120770000D01*
X111670000Y-116230000D02*
X111670000Y-120770000D01*
X111685000Y-116230000D02*
X111670000Y-116230000D01*
X113810000Y-116230000D02*
X113810000Y-120770000D01*
X113810000Y-116230000D02*
X113795000Y-116230000D01*
%TO.C,C1*%
X153430000Y-117230000D02*
X153445000Y-117230000D01*
X153430000Y-121770000D02*
X153430000Y-117230000D01*
X153430000Y-121770000D02*
X153445000Y-121770000D01*
X155555000Y-117230000D02*
X155570000Y-117230000D01*
X155555000Y-121770000D02*
X155570000Y-121770000D01*
X155570000Y-121770000D02*
X155570000Y-117230000D01*
%TD*%
M02*
