%TF.GenerationSoftware,KiCad,Pcbnew,8.0.6*%
%TF.CreationDate,2025-01-07T17:27:52+02:00*%
%TF.ProjectId,SVI-328-MegaROM,5356492d-3332-4382-9d4d-656761524f4d,1.0*%
%TF.SameCoordinates,Original*%
%TF.FileFunction,Copper,L2,Bot*%
%TF.FilePolarity,Positive*%
%FSLAX46Y46*%
G04 Gerber Fmt 4.6, Leading zero omitted, Abs format (unit mm)*
G04 Created by KiCad (PCBNEW 8.0.6) date 2025-01-07 17:27:52*
%MOMM*%
%LPD*%
G01*
G04 APERTURE LIST*
%TA.AperFunction,ComponentPad*%
%ADD10O,1.600000X1.600000*%
%TD*%
%TA.AperFunction,ComponentPad*%
%ADD11C,1.600000*%
%TD*%
%TA.AperFunction,ComponentPad*%
%ADD12R,1.600000X1.600000*%
%TD*%
%TA.AperFunction,ConnectorPad*%
%ADD13R,1.500000X11.000000*%
%TD*%
%TA.AperFunction,Conductor*%
%ADD14C,1.000000*%
%TD*%
%TA.AperFunction,Conductor*%
%ADD15C,0.250000*%
%TD*%
G04 APERTURE END LIST*
D10*
%TO.P,R2,2*%
%TO.N,Net-(C2-Pad1)*%
X117880000Y-115000000D03*
D11*
%TO.P,R2,1*%
%TO.N,Net-(U2-~{\u03A61})*%
X125500000Y-115000000D03*
%TD*%
%TO.P,R1,1*%
%TO.N,Net-(C2-Pad1)*%
X117880000Y-121500000D03*
D10*
%TO.P,R1,2*%
%TO.N,Net-(U2-\u03A60)*%
X125500000Y-121500000D03*
%TD*%
D12*
%TO.P,U2,1,Q12*%
%TO.N,unconnected-(U2-Q12-Pad1)*%
X148740000Y-114500000D03*
D10*
%TO.P,U2,2,Q13*%
%TO.N,unconnected-(U2-Q13-Pad2)*%
X146200000Y-114500000D03*
%TO.P,U2,3,Q14*%
%TO.N,unconnected-(U2-Q14-Pad3)*%
X143660000Y-114500000D03*
%TO.P,U2,4,Q6*%
%TO.N,Net-(U1-A16)*%
X141120000Y-114500000D03*
%TO.P,U2,5,Q5*%
%TO.N,Net-(U1-A15)*%
X138580000Y-114500000D03*
%TO.P,U2,6,Q7*%
%TO.N,Net-(U1-A17)*%
X136040000Y-114500000D03*
%TO.P,U2,7,Q4*%
%TO.N,Net-(U1-A14)*%
X133500000Y-114500000D03*
%TO.P,U2,8,VSS*%
%TO.N,GND*%
X130960000Y-114500000D03*
%TO.P,U2,9,~{\u03A60}*%
%TO.N,Net-(U2-~{\u03A60})*%
X130960000Y-122120000D03*
%TO.P,U2,10,\u03A60*%
%TO.N,Net-(U2-\u03A60)*%
X133500000Y-122120000D03*
%TO.P,U2,11,~{\u03A61}*%
%TO.N,Net-(U2-~{\u03A61})*%
X136040000Y-122120000D03*
%TO.P,U2,12,CLR*%
%TO.N,GND*%
X138580000Y-122120000D03*
%TO.P,U2,13,Q9*%
%TO.N,Net-(U1-A19)*%
X141120000Y-122120000D03*
%TO.P,U2,14,Q8*%
%TO.N,Net-(U1-A18)*%
X143660000Y-122120000D03*
%TO.P,U2,15,Q10*%
%TO.N,unconnected-(U2-Q10-Pad15)*%
X146200000Y-122120000D03*
%TO.P,U2,16,VDD*%
%TO.N,VCC*%
X148740000Y-122120000D03*
%TD*%
D12*
%TO.P,U1,1,A19*%
%TO.N,Net-(U1-A19)*%
X152900000Y-127260000D03*
D10*
%TO.P,U1,2,A16*%
%TO.N,Net-(U1-A16)*%
X150360000Y-127260000D03*
%TO.P,U1,3,A15*%
%TO.N,Net-(U1-A15)*%
X147820000Y-127260000D03*
%TO.P,U1,4,A12*%
%TO.N,A12*%
X145280000Y-127260000D03*
%TO.P,U1,5,A7*%
%TO.N,A7*%
X142740000Y-127260000D03*
%TO.P,U1,6,A6*%
%TO.N,A6*%
X140200000Y-127260000D03*
%TO.P,U1,7,A5*%
%TO.N,A5*%
X137660000Y-127260000D03*
%TO.P,U1,8,A4*%
%TO.N,A4*%
X135120000Y-127260000D03*
%TO.P,U1,9,A3*%
%TO.N,A3*%
X132580000Y-127260000D03*
%TO.P,U1,10,A2*%
%TO.N,A2*%
X130040000Y-127260000D03*
%TO.P,U1,11,A1*%
%TO.N,A1*%
X127500000Y-127260000D03*
%TO.P,U1,12,A0*%
%TO.N,A0*%
X124960000Y-127260000D03*
%TO.P,U1,13,D0*%
%TO.N,D0*%
X122420000Y-127260000D03*
%TO.P,U1,14,D1*%
%TO.N,D1*%
X119880000Y-127260000D03*
%TO.P,U1,15,D2*%
%TO.N,D2*%
X117340000Y-127260000D03*
%TO.P,U1,16,GND*%
%TO.N,GND*%
X114800000Y-127260000D03*
%TO.P,U1,17,D3*%
%TO.N,D3*%
X114800000Y-142500000D03*
%TO.P,U1,18,D4*%
%TO.N,D4*%
X117340000Y-142500000D03*
%TO.P,U1,19,D5*%
%TO.N,D5*%
X119880000Y-142500000D03*
%TO.P,U1,20,D6*%
%TO.N,D6*%
X122420000Y-142500000D03*
%TO.P,U1,21,D7*%
%TO.N,D7*%
X124960000Y-142500000D03*
%TO.P,U1,22,~{CE}*%
%TO.N,{slash}CCS1*%
X127500000Y-142500000D03*
%TO.P,U1,23,A10*%
%TO.N,A10*%
X130040000Y-142500000D03*
%TO.P,U1,24,~{OE}*%
%TO.N,{slash}CCS1*%
X132580000Y-142500000D03*
%TO.P,U1,25,A11*%
%TO.N,A11*%
X135120000Y-142500000D03*
%TO.P,U1,26,A9*%
%TO.N,A9*%
X137660000Y-142500000D03*
%TO.P,U1,27,A8*%
%TO.N,A8*%
X140200000Y-142500000D03*
%TO.P,U1,28,A13*%
%TO.N,A13*%
X142740000Y-142500000D03*
%TO.P,U1,29,A14*%
%TO.N,Net-(U1-A14)*%
X145280000Y-142500000D03*
%TO.P,U1,30,A17*%
%TO.N,Net-(U1-A17)*%
X147820000Y-142500000D03*
%TO.P,U1,31,A18*%
%TO.N,Net-(U1-A18)*%
X150360000Y-142500000D03*
%TO.P,U1,32,VCC*%
%TO.N,VCC*%
X152900000Y-142500000D03*
%TD*%
D11*
%TO.P,C2,2*%
%TO.N,Net-(U2-~{\u03A60})*%
X112740000Y-121000000D03*
%TO.P,C2,1*%
%TO.N,Net-(C2-Pad1)*%
X112740000Y-116000000D03*
%TD*%
D13*
%TO.P,J1,1,Pin_1*%
%TO.N,VCC*%
X151808691Y-156000414D03*
%TO.P,J1,3,Pin_3*%
%TO.N,A7*%
X149268691Y-156000414D03*
%TO.P,J1,5,Pin_5*%
%TO.N,A6*%
X146728691Y-156000414D03*
%TO.P,J1,7,Pin_7*%
%TO.N,A5*%
X144188691Y-156000414D03*
%TO.P,J1,9,Pin_9*%
%TO.N,A4*%
X141648691Y-156000414D03*
%TO.P,J1,11,Pin_11*%
%TO.N,A3*%
X139108691Y-156000414D03*
%TO.P,J1,13,Pin_13*%
%TO.N,A10*%
X136568691Y-156000414D03*
%TO.P,J1,15,Pin_15*%
%TO.N,A0*%
X134028691Y-156000414D03*
%TO.P,J1,17,Pin_17*%
%TO.N,D0*%
X131488691Y-156000414D03*
%TO.P,J1,19,Pin_19*%
%TO.N,D1*%
X128948691Y-156000414D03*
%TO.P,J1,21,Pin_21*%
%TO.N,D2*%
X126408691Y-156000414D03*
%TO.P,J1,23,Pin_23*%
%TO.N,D3*%
X123868691Y-156000414D03*
%TO.P,J1,25,Pin_25*%
%TO.N,unconnected-(J1-Pin_25-Pad25)*%
X121328691Y-156000414D03*
%TO.P,J1,27,Pin_27*%
%TO.N,{slash}CCS1*%
X118788691Y-156000414D03*
%TO.P,J1,29,Pin_29*%
%TO.N,GND*%
X116248691Y-156000414D03*
%TD*%
D11*
%TO.P,C1,1*%
%TO.N,VCC*%
X154500000Y-122000000D03*
%TO.P,C1,2*%
%TO.N,GND*%
X154500000Y-117000000D03*
%TD*%
D14*
%TO.N,GND*%
X138580000Y-120420000D02*
X139000000Y-120000000D01*
X138580000Y-122120000D02*
X138580000Y-120420000D01*
X116248691Y-148248691D02*
X113500000Y-145500000D01*
X116248691Y-156000414D02*
X116248691Y-148248691D01*
D15*
%TO.N,{slash}CCS1*%
X118788691Y-147288691D02*
X118500000Y-147000000D01*
X118500000Y-147000000D02*
X117709009Y-147000000D01*
X118788691Y-156000414D02*
X118788691Y-147288691D01*
X113675000Y-142965991D02*
X113675000Y-126794009D01*
X117709009Y-147000000D02*
X113675000Y-142965991D01*
X113675000Y-126794009D02*
X114469009Y-126000000D01*
X114469009Y-126000000D02*
X117009009Y-126000000D01*
%TO.N,D3*%
X123868691Y-150493691D02*
X117000000Y-143625000D01*
X123868691Y-156000414D02*
X123868691Y-150493691D01*
X117000000Y-143625000D02*
X115925000Y-143625000D01*
X115925000Y-143625000D02*
X114800000Y-142500000D01*
%TO.N,{slash}CCS1*%
X129000000Y-141375000D02*
X128625000Y-141375000D01*
X131455000Y-141375000D02*
X129000000Y-141375000D01*
X117009009Y-126000000D02*
X127830991Y-126000000D01*
X127830991Y-126000000D02*
X128915000Y-127084009D01*
X128915000Y-141290000D02*
X129000000Y-141375000D01*
X128915000Y-127084009D02*
X128915000Y-141290000D01*
%TO.N,Net-(U1-A17)*%
X144110991Y-124500000D02*
X138500000Y-124500000D01*
X146405000Y-126794009D02*
X144110991Y-124500000D01*
X137165000Y-115625000D02*
X136040000Y-114500000D01*
X146405000Y-141085000D02*
X146405000Y-126794009D01*
X138500000Y-124500000D02*
X137165000Y-123165000D01*
X137165000Y-123165000D02*
X137165000Y-115625000D01*
%TO.N,Net-(U1-A14)*%
X142570991Y-125500000D02*
X137000000Y-125500000D01*
X144155000Y-127084009D02*
X142570991Y-125500000D01*
X144155000Y-141375000D02*
X144155000Y-127084009D01*
X137000000Y-125500000D02*
X134625000Y-123125000D01*
X134625000Y-123125000D02*
X134625000Y-115625000D01*
X134625000Y-115625000D02*
X133500000Y-114500000D01*
%TO.N,Net-(U1-A19)*%
X152900000Y-127260000D02*
X148885000Y-123245000D01*
X148885000Y-123245000D02*
X142245000Y-123245000D01*
X142245000Y-123245000D02*
X141120000Y-122120000D01*
%TO.N,D2*%
X126408691Y-150591309D02*
X126500000Y-150500000D01*
X126408691Y-156000414D02*
X126408691Y-150591309D01*
X126500000Y-150500000D02*
X126289009Y-150500000D01*
X126289009Y-150500000D02*
X118500000Y-142710991D01*
X118500000Y-142710991D02*
X118500000Y-128420000D01*
X118500000Y-128420000D02*
X117340000Y-127260000D01*
%TO.N,D1*%
X128948691Y-150551309D02*
X129000000Y-150500000D01*
X128829009Y-150500000D02*
X121295000Y-142965991D01*
X128948691Y-156000414D02*
X128948691Y-150551309D01*
X129000000Y-150500000D02*
X128829009Y-150500000D01*
X121295000Y-142965991D02*
X121295000Y-128675000D01*
X121295000Y-128675000D02*
X119880000Y-127260000D01*
%TO.N,D0*%
X131488691Y-150511309D02*
X131500000Y-150500000D01*
X131488691Y-156000414D02*
X131488691Y-150511309D01*
X131500000Y-150500000D02*
X131369009Y-150500000D01*
X131369009Y-150500000D02*
X123835000Y-142965991D01*
X123835000Y-128675000D02*
X122420000Y-127260000D01*
X123835000Y-142965991D02*
X123835000Y-128675000D01*
%TO.N,A0*%
X134028691Y-156000414D02*
X134028691Y-151250414D01*
X134028691Y-151250414D02*
X126375000Y-143596723D01*
X126375000Y-128675000D02*
X124960000Y-127260000D01*
X126375000Y-143596723D02*
X126375000Y-128675000D01*
%TO.N,{slash}CCS1*%
X132580000Y-142500000D02*
X131455000Y-141375000D01*
X128625000Y-141375000D02*
X127500000Y-142500000D01*
%TO.N,A10*%
X133040000Y-147721723D02*
X133040000Y-145500000D01*
X133040000Y-145500000D02*
X130040000Y-142500000D01*
%TO.N,A3*%
X139108691Y-156000414D02*
X139108691Y-151250414D01*
X139108691Y-151250414D02*
X133995000Y-146136723D01*
X133995000Y-128675000D02*
X132580000Y-127260000D01*
X133995000Y-146136723D02*
X133995000Y-128675000D01*
%TO.N,A4*%
X141648691Y-156000414D02*
X141648691Y-151250414D01*
X136535000Y-128675000D02*
X135120000Y-127260000D01*
X141648691Y-151250414D02*
X136535000Y-146136723D01*
X136535000Y-146136723D02*
X136535000Y-128675000D01*
%TO.N,A5*%
X144188691Y-156000414D02*
X144188691Y-151250414D01*
X144188691Y-151250414D02*
X138785000Y-145846723D01*
X138785000Y-145846723D02*
X138785000Y-128385000D01*
X138785000Y-128385000D02*
X137660000Y-127260000D01*
%TO.N,A6*%
X146728691Y-156000414D02*
X146728691Y-151250414D01*
X146728691Y-151250414D02*
X141615000Y-146136723D01*
X141615000Y-146136723D02*
X141615000Y-128675000D01*
X141615000Y-128675000D02*
X140200000Y-127260000D01*
%TO.N,A7*%
X149268691Y-156000414D02*
X149268691Y-151250414D01*
X144000000Y-141856396D02*
X142740000Y-140596396D01*
X149268691Y-151250414D02*
X144000000Y-145981723D01*
X142740000Y-140596396D02*
X142740000Y-127260000D01*
X144000000Y-145981723D02*
X144000000Y-141856396D01*
%TO.N,Net-(U1-A14)*%
X145280000Y-142500000D02*
X144155000Y-141375000D01*
%TO.N,Net-(U1-A17)*%
X147820000Y-142500000D02*
X146405000Y-141085000D01*
D14*
%TO.N,VCC*%
X151808691Y-146635133D02*
X152900000Y-145543824D01*
X152900000Y-145543824D02*
X152900000Y-142500000D01*
X151808691Y-156000414D02*
X151808691Y-146635133D01*
D15*
%TO.N,A10*%
X136568691Y-151250414D02*
X133040000Y-147721723D01*
X136568691Y-156000414D02*
X136568691Y-151250414D01*
%TD*%
%TA.AperFunction,Conductor*%
%TO.N,GND*%
G36*
X160921848Y-103520185D02*
G01*
X160967603Y-103572989D01*
X160978809Y-103624500D01*
X160978809Y-138956751D01*
X160959124Y-139023790D01*
X160906320Y-139069545D01*
X160837162Y-139079489D01*
X160773606Y-139050464D01*
X160744712Y-139013800D01*
X160710291Y-138947372D01*
X160710287Y-138947366D01*
X160710287Y-138947365D01*
X160710284Y-138947360D01*
X160550838Y-138721476D01*
X160550834Y-138721472D01*
X160550833Y-138721470D01*
X160362103Y-138519389D01*
X160362096Y-138519384D01*
X160362095Y-138519382D01*
X160147610Y-138344886D01*
X159911359Y-138201219D01*
X159657750Y-138091061D01*
X159391499Y-138016461D01*
X159391494Y-138016460D01*
X159391493Y-138016460D01*
X159254527Y-137997634D01*
X159117563Y-137978809D01*
X159117562Y-137978809D01*
X158841056Y-137978809D01*
X158841055Y-137978809D01*
X158567125Y-138016460D01*
X158567118Y-138016461D01*
X158300867Y-138091061D01*
X158047258Y-138201219D01*
X157811007Y-138344886D01*
X157596522Y-138519382D01*
X157407779Y-138721476D01*
X157248333Y-138947360D01*
X157248329Y-138947366D01*
X157121116Y-139192877D01*
X157028522Y-139453409D01*
X157028517Y-139453425D01*
X156972264Y-139724135D01*
X156972263Y-139724137D01*
X156953395Y-140000000D01*
X156972263Y-140275862D01*
X156972264Y-140275864D01*
X157028517Y-140546574D01*
X157028522Y-140546590D01*
X157121116Y-140807122D01*
X157121115Y-140807122D01*
X157248329Y-141052633D01*
X157248333Y-141052639D01*
X157407779Y-141278523D01*
X157407783Y-141278527D01*
X157407785Y-141278530D01*
X157596515Y-141480611D01*
X157811004Y-141655111D01*
X157811006Y-141655112D01*
X157811007Y-141655113D01*
X158047258Y-141798780D01*
X158300867Y-141908938D01*
X158300872Y-141908940D01*
X158567125Y-141983540D01*
X158807953Y-142016641D01*
X158841055Y-142021191D01*
X158841056Y-142021191D01*
X159117563Y-142021191D01*
X159147095Y-142017131D01*
X159391493Y-141983540D01*
X159657746Y-141908940D01*
X159911361Y-141798779D01*
X160147614Y-141655111D01*
X160362103Y-141480611D01*
X160550833Y-141278530D01*
X160710289Y-141052632D01*
X160744711Y-140986199D01*
X160793031Y-140935733D01*
X160860965Y-140919401D01*
X160926945Y-140942390D01*
X160970022Y-140997400D01*
X160978809Y-141043248D01*
X160978809Y-147875500D01*
X160959124Y-147942539D01*
X160906320Y-147988294D01*
X160854809Y-147999500D01*
X153934108Y-147999500D01*
X153806812Y-148033608D01*
X153692686Y-148099500D01*
X153692683Y-148099502D01*
X153599502Y-148192683D01*
X153599500Y-148192686D01*
X153533608Y-148306812D01*
X153506471Y-148408093D01*
X153470106Y-148467754D01*
X153407259Y-148498283D01*
X153386696Y-148500000D01*
X152933191Y-148500000D01*
X152866152Y-148480315D01*
X152820397Y-148427511D01*
X152809191Y-148376000D01*
X152809191Y-147100914D01*
X152828876Y-147033875D01*
X152845506Y-147013237D01*
X153537778Y-146320965D01*
X153537782Y-146320963D01*
X153677139Y-146181606D01*
X153786632Y-146017738D01*
X153862051Y-145835659D01*
X153900500Y-145642365D01*
X153900500Y-143624000D01*
X153920185Y-143556961D01*
X153972989Y-143511206D01*
X154024500Y-143500000D01*
X154500000Y-143500000D01*
X154500000Y-126000000D01*
X153921258Y-126000000D01*
X153877925Y-125992182D01*
X153807482Y-125965908D01*
X153807483Y-125965908D01*
X153747883Y-125959501D01*
X153747881Y-125959500D01*
X153747873Y-125959500D01*
X153747865Y-125959500D01*
X152535453Y-125959500D01*
X152468414Y-125939815D01*
X152447772Y-125923181D01*
X149699569Y-123174978D01*
X149666084Y-123113655D01*
X149671068Y-123043963D01*
X149699568Y-122999616D01*
X149740047Y-122959139D01*
X149870568Y-122772734D01*
X149966739Y-122566496D01*
X150025635Y-122346692D01*
X150045468Y-122120000D01*
X150034969Y-121999998D01*
X153194532Y-121999998D01*
X153194532Y-122000001D01*
X153214364Y-122226686D01*
X153214366Y-122226697D01*
X153273258Y-122446488D01*
X153273261Y-122446497D01*
X153369431Y-122652732D01*
X153369432Y-122652734D01*
X153499954Y-122839141D01*
X153660858Y-123000045D01*
X153660861Y-123000047D01*
X153847266Y-123130568D01*
X154053504Y-123226739D01*
X154273308Y-123285635D01*
X154435230Y-123299801D01*
X154499998Y-123305468D01*
X154500000Y-123305468D01*
X154500002Y-123305468D01*
X154556673Y-123300509D01*
X154726692Y-123285635D01*
X154946496Y-123226739D01*
X155152734Y-123130568D01*
X155339139Y-123000047D01*
X155500047Y-122839139D01*
X155630568Y-122652734D01*
X155726739Y-122446496D01*
X155785635Y-122226692D01*
X155805468Y-122000000D01*
X155785635Y-121773308D01*
X155726739Y-121553504D01*
X155630568Y-121347266D01*
X155500047Y-121160861D01*
X155500045Y-121160858D01*
X155339141Y-120999954D01*
X155152734Y-120869432D01*
X155152732Y-120869431D01*
X154946497Y-120773261D01*
X154946488Y-120773258D01*
X154726697Y-120714366D01*
X154726693Y-120714365D01*
X154726692Y-120714365D01*
X154726691Y-120714364D01*
X154726686Y-120714364D01*
X154500002Y-120694532D01*
X154499998Y-120694532D01*
X154273313Y-120714364D01*
X154273302Y-120714366D01*
X154053511Y-120773258D01*
X154053502Y-120773261D01*
X153847267Y-120869431D01*
X153847265Y-120869432D01*
X153660858Y-120999954D01*
X153499954Y-121160858D01*
X153369432Y-121347265D01*
X153369431Y-121347267D01*
X153273261Y-121553502D01*
X153273258Y-121553511D01*
X153214366Y-121773302D01*
X153214364Y-121773313D01*
X153194532Y-121999998D01*
X150034969Y-121999998D01*
X150025635Y-121893308D01*
X149966739Y-121673504D01*
X149870568Y-121467266D01*
X149740047Y-121280861D01*
X149740045Y-121280858D01*
X149579141Y-121119954D01*
X149392734Y-120989432D01*
X149392732Y-120989431D01*
X149186497Y-120893261D01*
X149186488Y-120893258D01*
X148966697Y-120834366D01*
X148966693Y-120834365D01*
X148966692Y-120834365D01*
X148966691Y-120834364D01*
X148966686Y-120834364D01*
X148740002Y-120814532D01*
X148739998Y-120814532D01*
X148513313Y-120834364D01*
X148513302Y-120834366D01*
X148293511Y-120893258D01*
X148293502Y-120893261D01*
X148087267Y-120989431D01*
X148087265Y-120989432D01*
X147900858Y-121119954D01*
X147739954Y-121280858D01*
X147609432Y-121467265D01*
X147609431Y-121467267D01*
X147582382Y-121525275D01*
X147536209Y-121577714D01*
X147469016Y-121596866D01*
X147402135Y-121576650D01*
X147357618Y-121525275D01*
X147330568Y-121467266D01*
X147200047Y-121280861D01*
X147200045Y-121280858D01*
X147039141Y-121119954D01*
X146852734Y-120989432D01*
X146852732Y-120989431D01*
X146646497Y-120893261D01*
X146646488Y-120893258D01*
X146426697Y-120834366D01*
X146426693Y-120834365D01*
X146426692Y-120834365D01*
X146426691Y-120834364D01*
X146426686Y-120834364D01*
X146200002Y-120814532D01*
X146199998Y-120814532D01*
X145973313Y-120834364D01*
X145973302Y-120834366D01*
X145753511Y-120893258D01*
X145753502Y-120893261D01*
X145547267Y-120989431D01*
X145547265Y-120989432D01*
X145360858Y-121119954D01*
X145199954Y-121280858D01*
X145069432Y-121467265D01*
X145069431Y-121467267D01*
X145042382Y-121525275D01*
X144996209Y-121577714D01*
X144929016Y-121596866D01*
X144862135Y-121576650D01*
X144817618Y-121525275D01*
X144790568Y-121467266D01*
X144660047Y-121280861D01*
X144660045Y-121280858D01*
X144499141Y-121119954D01*
X144312734Y-120989432D01*
X144312732Y-120989431D01*
X144106497Y-120893261D01*
X144106488Y-120893258D01*
X143886697Y-120834366D01*
X143886693Y-120834365D01*
X143886692Y-120834365D01*
X143886691Y-120834364D01*
X143886686Y-120834364D01*
X143660002Y-120814532D01*
X143659998Y-120814532D01*
X143433313Y-120834364D01*
X143433302Y-120834366D01*
X143213511Y-120893258D01*
X143213502Y-120893261D01*
X143007267Y-120989431D01*
X143007265Y-120989432D01*
X142820858Y-121119954D01*
X142659954Y-121280858D01*
X142529432Y-121467265D01*
X142529431Y-121467267D01*
X142502382Y-121525275D01*
X142456209Y-121577714D01*
X142389016Y-121596866D01*
X142322135Y-121576650D01*
X142277618Y-121525275D01*
X142250568Y-121467266D01*
X142120047Y-121280861D01*
X142120045Y-121280858D01*
X141959141Y-121119954D01*
X141772734Y-120989432D01*
X141772732Y-120989431D01*
X141566497Y-120893261D01*
X141566488Y-120893258D01*
X141346697Y-120834366D01*
X141346693Y-120834365D01*
X141346692Y-120834365D01*
X141346691Y-120834364D01*
X141346686Y-120834364D01*
X141120002Y-120814532D01*
X141119998Y-120814532D01*
X140893313Y-120834364D01*
X140893302Y-120834366D01*
X140673511Y-120893258D01*
X140673502Y-120893261D01*
X140467267Y-120989431D01*
X140467265Y-120989432D01*
X140280858Y-121119954D01*
X140119954Y-121280858D01*
X140003975Y-121446496D01*
X139989432Y-121467266D01*
X139974168Y-121500001D01*
X139962106Y-121525867D01*
X139915933Y-121578306D01*
X139848739Y-121597457D01*
X139781858Y-121577241D01*
X139737342Y-121525865D01*
X139710135Y-121467520D01*
X139710134Y-121467518D01*
X139579657Y-121281179D01*
X139418820Y-121120342D01*
X139232482Y-120989865D01*
X139026328Y-120893734D01*
X138830000Y-120841127D01*
X138830000Y-121804314D01*
X138825606Y-121799920D01*
X138734394Y-121747259D01*
X138632661Y-121720000D01*
X138527339Y-121720000D01*
X138425606Y-121747259D01*
X138334394Y-121799920D01*
X138330000Y-121804314D01*
X138330000Y-120841127D01*
X138133671Y-120893734D01*
X137966905Y-120971499D01*
X137897827Y-120981991D01*
X137834043Y-120953471D01*
X137795804Y-120894994D01*
X137790500Y-120859117D01*
X137790500Y-116999997D01*
X153195034Y-116999997D01*
X153195034Y-117000002D01*
X153214858Y-117226599D01*
X153214860Y-117226610D01*
X153273730Y-117446317D01*
X153273735Y-117446331D01*
X153369863Y-117652478D01*
X153420974Y-117725472D01*
X154100000Y-117046446D01*
X154100000Y-117052661D01*
X154127259Y-117154394D01*
X154179920Y-117245606D01*
X154254394Y-117320080D01*
X154345606Y-117372741D01*
X154447339Y-117400000D01*
X154453553Y-117400000D01*
X153774526Y-118079025D01*
X153847513Y-118130132D01*
X153847521Y-118130136D01*
X154053668Y-118226264D01*
X154053682Y-118226269D01*
X154273389Y-118285139D01*
X154273400Y-118285141D01*
X154499998Y-118304966D01*
X154500002Y-118304966D01*
X154726599Y-118285141D01*
X154726610Y-118285139D01*
X154946317Y-118226269D01*
X154946331Y-118226264D01*
X155152478Y-118130136D01*
X155225471Y-118079024D01*
X154546447Y-117400000D01*
X154552661Y-117400000D01*
X154654394Y-117372741D01*
X154745606Y-117320080D01*
X154820080Y-117245606D01*
X154872741Y-117154394D01*
X154900000Y-117052661D01*
X154900000Y-117046447D01*
X155579024Y-117725471D01*
X155630136Y-117652478D01*
X155726264Y-117446331D01*
X155726269Y-117446317D01*
X155785139Y-117226610D01*
X155785141Y-117226599D01*
X155804966Y-117000002D01*
X155804966Y-116999997D01*
X155785141Y-116773400D01*
X155785139Y-116773389D01*
X155726269Y-116553682D01*
X155726264Y-116553668D01*
X155630136Y-116347521D01*
X155630132Y-116347513D01*
X155579025Y-116274526D01*
X154900000Y-116953551D01*
X154900000Y-116947339D01*
X154872741Y-116845606D01*
X154820080Y-116754394D01*
X154745606Y-116679920D01*
X154654394Y-116627259D01*
X154552661Y-116600000D01*
X154546448Y-116600000D01*
X155225472Y-115920974D01*
X155152478Y-115869863D01*
X154946331Y-115773735D01*
X154946317Y-115773730D01*
X154726610Y-115714860D01*
X154726599Y-115714858D01*
X154500002Y-115695034D01*
X154499998Y-115695034D01*
X154273400Y-115714858D01*
X154273389Y-115714860D01*
X154053682Y-115773730D01*
X154053673Y-115773734D01*
X153847516Y-115869866D01*
X153847512Y-115869868D01*
X153774526Y-115920973D01*
X153774526Y-115920974D01*
X154453553Y-116600000D01*
X154447339Y-116600000D01*
X154345606Y-116627259D01*
X154254394Y-116679920D01*
X154179920Y-116754394D01*
X154127259Y-116845606D01*
X154100000Y-116947339D01*
X154100000Y-116953552D01*
X153420974Y-116274526D01*
X153420973Y-116274526D01*
X153369868Y-116347512D01*
X153369866Y-116347516D01*
X153273734Y-116553673D01*
X153273730Y-116553682D01*
X153214860Y-116773389D01*
X153214858Y-116773400D01*
X153195034Y-116999997D01*
X137790500Y-116999997D01*
X137790500Y-115761433D01*
X137810185Y-115694394D01*
X137862989Y-115648639D01*
X137932147Y-115638695D01*
X137966898Y-115649049D01*
X138133504Y-115726739D01*
X138353308Y-115785635D01*
X138510780Y-115799412D01*
X138579998Y-115805468D01*
X138580000Y-115805468D01*
X138580002Y-115805468D01*
X138649220Y-115799412D01*
X138806692Y-115785635D01*
X139026496Y-115726739D01*
X139232734Y-115630568D01*
X139419139Y-115500047D01*
X139580047Y-115339139D01*
X139710568Y-115152734D01*
X139737618Y-115094724D01*
X139783790Y-115042285D01*
X139850983Y-115023133D01*
X139917865Y-115043348D01*
X139962382Y-115094725D01*
X139989429Y-115152728D01*
X139989432Y-115152734D01*
X140119954Y-115339141D01*
X140280858Y-115500045D01*
X140280861Y-115500047D01*
X140467266Y-115630568D01*
X140673504Y-115726739D01*
X140893308Y-115785635D01*
X141050780Y-115799412D01*
X141119998Y-115805468D01*
X141120000Y-115805468D01*
X141120002Y-115805468D01*
X141189220Y-115799412D01*
X141346692Y-115785635D01*
X141566496Y-115726739D01*
X141772734Y-115630568D01*
X141959139Y-115500047D01*
X142120047Y-115339139D01*
X142250568Y-115152734D01*
X142277618Y-115094724D01*
X142323790Y-115042285D01*
X142390983Y-115023133D01*
X142457865Y-115043348D01*
X142502382Y-115094725D01*
X142529429Y-115152728D01*
X142529432Y-115152734D01*
X142659954Y-115339141D01*
X142820858Y-115500045D01*
X142820861Y-115500047D01*
X143007266Y-115630568D01*
X143213504Y-115726739D01*
X143433308Y-115785635D01*
X143590780Y-115799412D01*
X143659998Y-115805468D01*
X143660000Y-115805468D01*
X143660002Y-115805468D01*
X143729220Y-115799412D01*
X143886692Y-115785635D01*
X144106496Y-115726739D01*
X144312734Y-115630568D01*
X144499139Y-115500047D01*
X144660047Y-115339139D01*
X144790568Y-115152734D01*
X144817618Y-115094724D01*
X144863790Y-115042285D01*
X144930983Y-115023133D01*
X144997865Y-115043348D01*
X145042382Y-115094725D01*
X145069429Y-115152728D01*
X145069432Y-115152734D01*
X145199954Y-115339141D01*
X145360858Y-115500045D01*
X145360861Y-115500047D01*
X145547266Y-115630568D01*
X145753504Y-115726739D01*
X145973308Y-115785635D01*
X146130780Y-115799412D01*
X146199998Y-115805468D01*
X146200000Y-115805468D01*
X146200002Y-115805468D01*
X146269220Y-115799412D01*
X146426692Y-115785635D01*
X146646496Y-115726739D01*
X146852734Y-115630568D01*
X147039139Y-115500047D01*
X147200047Y-115339139D01*
X147217272Y-115314539D01*
X147271848Y-115270913D01*
X147341346Y-115263718D01*
X147403701Y-115295239D01*
X147439116Y-115355468D01*
X147442138Y-115372406D01*
X147445908Y-115407483D01*
X147496202Y-115542328D01*
X147496206Y-115542335D01*
X147582452Y-115657544D01*
X147582455Y-115657547D01*
X147697664Y-115743793D01*
X147697671Y-115743797D01*
X147832517Y-115794091D01*
X147832516Y-115794091D01*
X147839444Y-115794835D01*
X147892127Y-115800500D01*
X149587872Y-115800499D01*
X149647483Y-115794091D01*
X149782331Y-115743796D01*
X149897546Y-115657546D01*
X149983796Y-115542331D01*
X150034091Y-115407483D01*
X150040500Y-115347873D01*
X150040499Y-113652128D01*
X150034091Y-113592517D01*
X149999567Y-113499954D01*
X149983797Y-113457671D01*
X149983793Y-113457664D01*
X149897547Y-113342455D01*
X149897544Y-113342452D01*
X149782335Y-113256206D01*
X149782328Y-113256202D01*
X149647482Y-113205908D01*
X149647483Y-113205908D01*
X149587883Y-113199501D01*
X149587881Y-113199500D01*
X149587873Y-113199500D01*
X149587864Y-113199500D01*
X147892129Y-113199500D01*
X147892123Y-113199501D01*
X147832516Y-113205908D01*
X147697671Y-113256202D01*
X147697664Y-113256206D01*
X147582455Y-113342452D01*
X147582452Y-113342455D01*
X147496206Y-113457664D01*
X147496202Y-113457671D01*
X147445908Y-113592516D01*
X147442137Y-113627596D01*
X147415398Y-113692146D01*
X147358006Y-113731994D01*
X147288180Y-113734487D01*
X147228092Y-113698834D01*
X147217273Y-113685462D01*
X147200045Y-113660858D01*
X147039141Y-113499954D01*
X146852734Y-113369432D01*
X146852732Y-113369431D01*
X146646497Y-113273261D01*
X146646488Y-113273258D01*
X146426697Y-113214366D01*
X146426693Y-113214365D01*
X146426692Y-113214365D01*
X146426691Y-113214364D01*
X146426686Y-113214364D01*
X146200002Y-113194532D01*
X146199998Y-113194532D01*
X145973313Y-113214364D01*
X145973302Y-113214366D01*
X145753511Y-113273258D01*
X145753502Y-113273261D01*
X145547267Y-113369431D01*
X145547265Y-113369432D01*
X145360858Y-113499954D01*
X145199954Y-113660858D01*
X145069432Y-113847265D01*
X145069431Y-113847267D01*
X145042382Y-113905275D01*
X144996209Y-113957714D01*
X144929016Y-113976866D01*
X144862135Y-113956650D01*
X144817618Y-113905275D01*
X144800904Y-113869432D01*
X144790568Y-113847266D01*
X144686636Y-113698834D01*
X144660045Y-113660858D01*
X144499141Y-113499954D01*
X144312734Y-113369432D01*
X144312732Y-113369431D01*
X144106497Y-113273261D01*
X144106488Y-113273258D01*
X143886697Y-113214366D01*
X143886693Y-113214365D01*
X143886692Y-113214365D01*
X143886691Y-113214364D01*
X143886686Y-113214364D01*
X143660002Y-113194532D01*
X143659998Y-113194532D01*
X143433313Y-113214364D01*
X143433302Y-113214366D01*
X143213511Y-113273258D01*
X143213502Y-113273261D01*
X143007267Y-113369431D01*
X143007265Y-113369432D01*
X142820858Y-113499954D01*
X142659954Y-113660858D01*
X142529432Y-113847265D01*
X142529431Y-113847267D01*
X142502382Y-113905275D01*
X142456209Y-113957714D01*
X142389016Y-113976866D01*
X142322135Y-113956650D01*
X142277618Y-113905275D01*
X142260904Y-113869432D01*
X142250568Y-113847266D01*
X142146636Y-113698834D01*
X142120045Y-113660858D01*
X141959141Y-113499954D01*
X141772734Y-113369432D01*
X141772732Y-113369431D01*
X141566497Y-113273261D01*
X141566488Y-113273258D01*
X141346697Y-113214366D01*
X141346693Y-113214365D01*
X141346692Y-113214365D01*
X141346691Y-113214364D01*
X141346686Y-113214364D01*
X141120002Y-113194532D01*
X141119998Y-113194532D01*
X140893313Y-113214364D01*
X140893302Y-113214366D01*
X140673511Y-113273258D01*
X140673502Y-113273261D01*
X140467267Y-113369431D01*
X140467265Y-113369432D01*
X140280858Y-113499954D01*
X140119954Y-113660858D01*
X139989432Y-113847265D01*
X139989431Y-113847267D01*
X139962382Y-113905275D01*
X139916209Y-113957714D01*
X139849016Y-113976866D01*
X139782135Y-113956650D01*
X139737618Y-113905275D01*
X139720904Y-113869432D01*
X139710568Y-113847266D01*
X139606636Y-113698834D01*
X139580045Y-113660858D01*
X139419141Y-113499954D01*
X139232734Y-113369432D01*
X139232732Y-113369431D01*
X139026497Y-113273261D01*
X139026488Y-113273258D01*
X138806697Y-113214366D01*
X138806693Y-113214365D01*
X138806692Y-113214365D01*
X138806691Y-113214364D01*
X138806686Y-113214364D01*
X138580002Y-113194532D01*
X138579998Y-113194532D01*
X138353313Y-113214364D01*
X138353302Y-113214366D01*
X138133511Y-113273258D01*
X138133502Y-113273261D01*
X137927267Y-113369431D01*
X137927265Y-113369432D01*
X137740858Y-113499954D01*
X137579954Y-113660858D01*
X137449432Y-113847265D01*
X137449431Y-113847267D01*
X137422382Y-113905275D01*
X137376209Y-113957714D01*
X137309016Y-113976866D01*
X137242135Y-113956650D01*
X137197618Y-113905275D01*
X137180904Y-113869432D01*
X137170568Y-113847266D01*
X137066636Y-113698834D01*
X137040045Y-113660858D01*
X136879141Y-113499954D01*
X136692734Y-113369432D01*
X136692732Y-113369431D01*
X136486497Y-113273261D01*
X136486488Y-113273258D01*
X136266697Y-113214366D01*
X136266693Y-113214365D01*
X136266692Y-113214365D01*
X136266691Y-113214364D01*
X136266686Y-113214364D01*
X136040002Y-113194532D01*
X136039998Y-113194532D01*
X135813313Y-113214364D01*
X135813302Y-113214366D01*
X135593511Y-113273258D01*
X135593502Y-113273261D01*
X135387267Y-113369431D01*
X135387265Y-113369432D01*
X135200858Y-113499954D01*
X135039954Y-113660858D01*
X134909432Y-113847265D01*
X134909431Y-113847267D01*
X134882382Y-113905275D01*
X134836209Y-113957714D01*
X134769016Y-113976866D01*
X134702135Y-113956650D01*
X134657618Y-113905275D01*
X134640904Y-113869432D01*
X134630568Y-113847266D01*
X134526636Y-113698834D01*
X134500045Y-113660858D01*
X134339141Y-113499954D01*
X134152734Y-113369432D01*
X134152732Y-113369431D01*
X133946497Y-113273261D01*
X133946488Y-113273258D01*
X133726697Y-113214366D01*
X133726693Y-113214365D01*
X133726692Y-113214365D01*
X133726691Y-113214364D01*
X133726686Y-113214364D01*
X133500002Y-113194532D01*
X133499998Y-113194532D01*
X133273313Y-113214364D01*
X133273302Y-113214366D01*
X133053511Y-113273258D01*
X133053502Y-113273261D01*
X132847267Y-113369431D01*
X132847265Y-113369432D01*
X132660858Y-113499954D01*
X132499954Y-113660858D01*
X132421252Y-113773258D01*
X132369432Y-113847266D01*
X132369315Y-113847518D01*
X132342106Y-113905867D01*
X132295933Y-113958306D01*
X132228739Y-113977457D01*
X132161858Y-113957241D01*
X132117342Y-113905865D01*
X132090135Y-113847520D01*
X132090134Y-113847518D01*
X131959657Y-113661179D01*
X131798820Y-113500342D01*
X131612482Y-113369865D01*
X131406328Y-113273734D01*
X131210000Y-113221127D01*
X131210000Y-114184314D01*
X131205606Y-114179920D01*
X131114394Y-114127259D01*
X131012661Y-114100000D01*
X130907339Y-114100000D01*
X130805606Y-114127259D01*
X130714394Y-114179920D01*
X130710000Y-114184314D01*
X130710000Y-113221127D01*
X130513671Y-113273734D01*
X130307517Y-113369865D01*
X130121179Y-113500342D01*
X129960342Y-113661179D01*
X129829865Y-113847517D01*
X129733734Y-114053673D01*
X129733730Y-114053682D01*
X129681127Y-114249999D01*
X129681128Y-114250000D01*
X130644314Y-114250000D01*
X130639920Y-114254394D01*
X130587259Y-114345606D01*
X130560000Y-114447339D01*
X130560000Y-114552661D01*
X130587259Y-114654394D01*
X130639920Y-114745606D01*
X130644314Y-114750000D01*
X129681128Y-114750000D01*
X129733730Y-114946317D01*
X129733734Y-114946326D01*
X129829865Y-115152482D01*
X129960342Y-115338820D01*
X130121179Y-115499657D01*
X130307517Y-115630134D01*
X130513673Y-115726265D01*
X130513682Y-115726269D01*
X130709999Y-115778872D01*
X130710000Y-115778871D01*
X130710000Y-114815686D01*
X130714394Y-114820080D01*
X130805606Y-114872741D01*
X130907339Y-114900000D01*
X131012661Y-114900000D01*
X131114394Y-114872741D01*
X131205606Y-114820080D01*
X131210000Y-114815686D01*
X131210000Y-115778872D01*
X131406317Y-115726269D01*
X131406326Y-115726265D01*
X131612482Y-115630134D01*
X131798820Y-115499657D01*
X131959657Y-115338820D01*
X132090132Y-115152484D01*
X132117341Y-115094134D01*
X132163513Y-115041695D01*
X132230707Y-115022542D01*
X132297588Y-115042757D01*
X132342106Y-115094133D01*
X132369431Y-115152732D01*
X132369432Y-115152734D01*
X132499954Y-115339141D01*
X132660858Y-115500045D01*
X132660861Y-115500047D01*
X132847266Y-115630568D01*
X133053504Y-115726739D01*
X133273308Y-115785635D01*
X133430780Y-115799412D01*
X133499998Y-115805468D01*
X133500000Y-115805468D01*
X133500002Y-115805468D01*
X133569220Y-115799412D01*
X133726692Y-115785635D01*
X133795048Y-115767319D01*
X133864896Y-115768980D01*
X133914822Y-115799412D01*
X133963181Y-115847771D01*
X133996666Y-115909094D01*
X133999500Y-115935452D01*
X133999500Y-120745863D01*
X133979815Y-120812902D01*
X133927011Y-120858657D01*
X133857853Y-120868601D01*
X133843407Y-120865638D01*
X133726697Y-120834366D01*
X133726693Y-120834365D01*
X133726692Y-120834365D01*
X133726691Y-120834364D01*
X133726686Y-120834364D01*
X133500002Y-120814532D01*
X133499998Y-120814532D01*
X133273313Y-120834364D01*
X133273302Y-120834366D01*
X133053511Y-120893258D01*
X133053502Y-120893261D01*
X132847267Y-120989431D01*
X132847265Y-120989432D01*
X132660858Y-121119954D01*
X132499954Y-121280858D01*
X132369432Y-121467265D01*
X132369431Y-121467267D01*
X132342382Y-121525275D01*
X132296209Y-121577714D01*
X132229016Y-121596866D01*
X132162135Y-121576650D01*
X132117618Y-121525275D01*
X132090568Y-121467266D01*
X131960047Y-121280861D01*
X131960045Y-121280858D01*
X131799141Y-121119954D01*
X131612734Y-120989432D01*
X131612732Y-120989431D01*
X131406497Y-120893261D01*
X131406488Y-120893258D01*
X131186697Y-120834366D01*
X131186693Y-120834365D01*
X131186692Y-120834365D01*
X131186691Y-120834364D01*
X131186686Y-120834364D01*
X130960002Y-120814532D01*
X130959998Y-120814532D01*
X130733313Y-120834364D01*
X130733302Y-120834366D01*
X130513511Y-120893258D01*
X130513502Y-120893261D01*
X130307267Y-120989431D01*
X130307265Y-120989432D01*
X130120858Y-121119954D01*
X129959954Y-121280858D01*
X129829432Y-121467265D01*
X129829431Y-121467267D01*
X129733261Y-121673502D01*
X129733258Y-121673511D01*
X129674366Y-121893302D01*
X129674364Y-121893313D01*
X129654532Y-122119998D01*
X129654532Y-122120001D01*
X129674364Y-122346686D01*
X129674366Y-122346697D01*
X129733258Y-122566488D01*
X129733261Y-122566497D01*
X129829431Y-122772732D01*
X129829432Y-122772734D01*
X129959954Y-122959141D01*
X130120858Y-123120045D01*
X130120861Y-123120047D01*
X130307266Y-123250568D01*
X130513504Y-123346739D01*
X130513509Y-123346740D01*
X130513511Y-123346741D01*
X130549462Y-123356374D01*
X130733308Y-123405635D01*
X130890780Y-123419412D01*
X130959998Y-123425468D01*
X130960000Y-123425468D01*
X130960002Y-123425468D01*
X131029220Y-123419412D01*
X131186692Y-123405635D01*
X131406496Y-123346739D01*
X131612734Y-123250568D01*
X131799139Y-123120047D01*
X131960047Y-122959139D01*
X132090568Y-122772734D01*
X132117618Y-122714724D01*
X132163790Y-122662285D01*
X132230983Y-122643133D01*
X132297865Y-122663348D01*
X132342382Y-122714725D01*
X132369429Y-122772728D01*
X132369432Y-122772734D01*
X132499954Y-122959141D01*
X132660858Y-123120045D01*
X132660861Y-123120047D01*
X132847266Y-123250568D01*
X133053504Y-123346739D01*
X133053509Y-123346740D01*
X133053511Y-123346741D01*
X133089462Y-123356374D01*
X133273308Y-123405635D01*
X133430780Y-123419412D01*
X133499998Y-123425468D01*
X133500000Y-123425468D01*
X133500002Y-123425468D01*
X133569220Y-123419412D01*
X133726692Y-123405635D01*
X133925450Y-123352378D01*
X133995297Y-123354041D01*
X134053160Y-123393203D01*
X134067060Y-123416317D01*
X134067816Y-123415913D01*
X134070688Y-123421286D01*
X134097414Y-123461283D01*
X134097415Y-123461286D01*
X134097416Y-123461286D01*
X134139141Y-123523733D01*
X134230586Y-123615178D01*
X134230608Y-123615198D01*
X136403729Y-125788319D01*
X136437214Y-125849642D01*
X136432230Y-125919334D01*
X136390358Y-125975267D01*
X136324894Y-125999684D01*
X136316048Y-126000000D01*
X135458689Y-126000000D01*
X135426596Y-125995775D01*
X135346697Y-125974366D01*
X135346693Y-125974365D01*
X135346692Y-125974365D01*
X135346691Y-125974364D01*
X135346686Y-125974364D01*
X135120002Y-125954532D01*
X135119998Y-125954532D01*
X134893313Y-125974364D01*
X134893302Y-125974366D01*
X134813404Y-125995775D01*
X134781311Y-126000000D01*
X132918689Y-126000000D01*
X132886596Y-125995775D01*
X132806697Y-125974366D01*
X132806693Y-125974365D01*
X132806692Y-125974365D01*
X132806691Y-125974364D01*
X132806686Y-125974364D01*
X132580002Y-125954532D01*
X132579998Y-125954532D01*
X132353313Y-125974364D01*
X132353302Y-125974366D01*
X132273404Y-125995775D01*
X132241311Y-126000000D01*
X130378689Y-126000000D01*
X130346596Y-125995775D01*
X130266697Y-125974366D01*
X130266693Y-125974365D01*
X130266692Y-125974365D01*
X130266691Y-125974364D01*
X130266686Y-125974364D01*
X130040002Y-125954532D01*
X130039998Y-125954532D01*
X129813313Y-125974364D01*
X129813302Y-125974366D01*
X129733404Y-125995775D01*
X129701311Y-126000000D01*
X128766943Y-126000000D01*
X128699904Y-125980315D01*
X128679262Y-125963681D01*
X128321189Y-125605608D01*
X128321169Y-125605586D01*
X128229724Y-125514141D01*
X128178500Y-125479915D01*
X128127277Y-125445688D01*
X128127274Y-125445686D01*
X128127271Y-125445685D01*
X128046783Y-125412347D01*
X128013444Y-125398537D01*
X128003418Y-125396543D01*
X127953020Y-125386518D01*
X127892601Y-125374500D01*
X127892598Y-125374500D01*
X127892597Y-125374500D01*
X117070615Y-125374500D01*
X114530615Y-125374500D01*
X114407402Y-125374500D01*
X114407398Y-125374500D01*
X114346980Y-125386518D01*
X114303752Y-125395116D01*
X114286555Y-125398537D01*
X114172725Y-125445687D01*
X114172716Y-125445692D01*
X114070277Y-125514140D01*
X114026714Y-125557703D01*
X113983151Y-125601267D01*
X113983148Y-125601270D01*
X113796100Y-125788319D01*
X113620738Y-125963681D01*
X113559415Y-125997166D01*
X113533057Y-126000000D01*
X113000000Y-126000000D01*
X113000000Y-143500000D01*
X113273057Y-143500000D01*
X113340096Y-143519685D01*
X113360738Y-143536319D01*
X117220025Y-147395606D01*
X117220054Y-147395637D01*
X117310272Y-147485855D01*
X117310276Y-147485858D01*
X117412716Y-147554307D01*
X117412722Y-147554310D01*
X117412723Y-147554311D01*
X117526557Y-147601463D01*
X117586980Y-147613481D01*
X117647402Y-147625500D01*
X117647403Y-147625500D01*
X118039191Y-147625500D01*
X118106230Y-147645185D01*
X118151985Y-147697989D01*
X118163191Y-147749500D01*
X118163191Y-148376000D01*
X118143506Y-148443039D01*
X118090702Y-148488794D01*
X118039191Y-148500000D01*
X114613304Y-148500000D01*
X114546265Y-148480315D01*
X114500510Y-148427511D01*
X114493529Y-148408093D01*
X114484930Y-148376000D01*
X114466392Y-148306814D01*
X114400500Y-148192686D01*
X114307314Y-148099500D01*
X114249100Y-148065890D01*
X114193187Y-148033608D01*
X114129539Y-148016554D01*
X114065892Y-147999500D01*
X114065891Y-147999500D01*
X107103809Y-147999500D01*
X107036770Y-147979815D01*
X106991015Y-147927011D01*
X106979809Y-147875500D01*
X106979809Y-141083180D01*
X106999494Y-141016141D01*
X107052298Y-140970386D01*
X107121456Y-140960442D01*
X107185012Y-140989467D01*
X107213907Y-141026132D01*
X107227638Y-141052633D01*
X107227642Y-141052639D01*
X107387088Y-141278523D01*
X107387092Y-141278527D01*
X107387094Y-141278530D01*
X107575824Y-141480611D01*
X107790313Y-141655111D01*
X107790315Y-141655112D01*
X107790316Y-141655113D01*
X108026567Y-141798780D01*
X108280176Y-141908938D01*
X108280181Y-141908940D01*
X108546434Y-141983540D01*
X108787262Y-142016641D01*
X108820364Y-142021191D01*
X108820365Y-142021191D01*
X109096872Y-142021191D01*
X109126404Y-142017131D01*
X109370802Y-141983540D01*
X109637055Y-141908940D01*
X109890670Y-141798779D01*
X110126923Y-141655111D01*
X110341412Y-141480611D01*
X110530142Y-141278530D01*
X110689598Y-141052632D01*
X110816809Y-140807126D01*
X110909406Y-140546585D01*
X110909406Y-140546580D01*
X110909409Y-140546574D01*
X110958118Y-140312170D01*
X110965663Y-140275862D01*
X110984532Y-140000000D01*
X110965663Y-139724138D01*
X110937427Y-139588259D01*
X110909409Y-139453425D01*
X110909404Y-139453409D01*
X110816810Y-139192877D01*
X110816811Y-139192877D01*
X110689597Y-138947366D01*
X110689593Y-138947360D01*
X110530147Y-138721476D01*
X110530143Y-138721472D01*
X110530142Y-138721470D01*
X110341412Y-138519389D01*
X110341405Y-138519384D01*
X110341404Y-138519382D01*
X110126919Y-138344886D01*
X109890668Y-138201219D01*
X109637059Y-138091061D01*
X109370808Y-138016461D01*
X109370803Y-138016460D01*
X109370802Y-138016460D01*
X109233836Y-137997634D01*
X109096872Y-137978809D01*
X109096871Y-137978809D01*
X108820365Y-137978809D01*
X108820364Y-137978809D01*
X108546434Y-138016460D01*
X108546427Y-138016461D01*
X108280176Y-138091061D01*
X108026567Y-138201219D01*
X107790316Y-138344886D01*
X107575831Y-138519382D01*
X107387088Y-138721476D01*
X107227642Y-138947360D01*
X107227638Y-138947367D01*
X107213906Y-138973869D01*
X107165585Y-139024335D01*
X107097651Y-139040666D01*
X107031672Y-139017676D01*
X106988596Y-138962665D01*
X106979809Y-138916819D01*
X106979809Y-120999998D01*
X111434532Y-120999998D01*
X111434532Y-121000001D01*
X111454364Y-121226686D01*
X111454366Y-121226697D01*
X111513258Y-121446488D01*
X111513261Y-121446497D01*
X111609431Y-121652732D01*
X111609432Y-121652734D01*
X111739954Y-121839141D01*
X111900858Y-122000045D01*
X111900861Y-122000047D01*
X112087266Y-122130568D01*
X112293504Y-122226739D01*
X112513308Y-122285635D01*
X112675230Y-122299801D01*
X112739998Y-122305468D01*
X112740000Y-122305468D01*
X112740002Y-122305468D01*
X112796673Y-122300509D01*
X112966692Y-122285635D01*
X113186496Y-122226739D01*
X113392734Y-122130568D01*
X113579139Y-122000047D01*
X113740047Y-121839139D01*
X113870568Y-121652734D01*
X113941790Y-121499998D01*
X116574532Y-121499998D01*
X116574532Y-121500001D01*
X116594364Y-121726686D01*
X116594366Y-121726697D01*
X116653258Y-121946488D01*
X116653261Y-121946497D01*
X116749431Y-122152732D01*
X116749432Y-122152734D01*
X116879954Y-122339141D01*
X117040858Y-122500045D01*
X117040861Y-122500047D01*
X117227266Y-122630568D01*
X117433504Y-122726739D01*
X117653308Y-122785635D01*
X117815230Y-122799801D01*
X117879998Y-122805468D01*
X117880000Y-122805468D01*
X117880002Y-122805468D01*
X117936673Y-122800509D01*
X118106692Y-122785635D01*
X118326496Y-122726739D01*
X118532734Y-122630568D01*
X118719139Y-122500047D01*
X118880047Y-122339139D01*
X119010568Y-122152734D01*
X119106739Y-121946496D01*
X119165635Y-121726692D01*
X119185468Y-121500000D01*
X119185468Y-121499998D01*
X124194532Y-121499998D01*
X124194532Y-121500001D01*
X124214364Y-121726686D01*
X124214366Y-121726697D01*
X124273258Y-121946488D01*
X124273261Y-121946497D01*
X124369431Y-122152732D01*
X124369432Y-122152734D01*
X124499954Y-122339141D01*
X124660858Y-122500045D01*
X124660861Y-122500047D01*
X124847266Y-122630568D01*
X125053504Y-122726739D01*
X125273308Y-122785635D01*
X125435230Y-122799801D01*
X125499998Y-122805468D01*
X125500000Y-122805468D01*
X125500002Y-122805468D01*
X125556673Y-122800509D01*
X125726692Y-122785635D01*
X125946496Y-122726739D01*
X126152734Y-122630568D01*
X126339139Y-122500047D01*
X126500047Y-122339139D01*
X126630568Y-122152734D01*
X126726739Y-121946496D01*
X126785635Y-121726692D01*
X126805468Y-121500000D01*
X126785635Y-121273308D01*
X126726739Y-121053504D01*
X126630568Y-120847266D01*
X126532839Y-120707693D01*
X126500045Y-120660858D01*
X126339141Y-120499954D01*
X126152734Y-120369432D01*
X126152732Y-120369431D01*
X125946497Y-120273261D01*
X125946488Y-120273258D01*
X125726697Y-120214366D01*
X125726693Y-120214365D01*
X125726692Y-120214365D01*
X125726691Y-120214364D01*
X125726686Y-120214364D01*
X125500002Y-120194532D01*
X125499998Y-120194532D01*
X125273313Y-120214364D01*
X125273302Y-120214366D01*
X125053511Y-120273258D01*
X125053502Y-120273261D01*
X124847267Y-120369431D01*
X124847265Y-120369432D01*
X124660858Y-120499954D01*
X124499954Y-120660858D01*
X124369432Y-120847265D01*
X124369431Y-120847267D01*
X124273261Y-121053502D01*
X124273258Y-121053511D01*
X124214366Y-121273302D01*
X124214364Y-121273313D01*
X124194532Y-121499998D01*
X119185468Y-121499998D01*
X119165635Y-121273308D01*
X119106739Y-121053504D01*
X119010568Y-120847266D01*
X118912839Y-120707693D01*
X118880045Y-120660858D01*
X118719141Y-120499954D01*
X118532734Y-120369432D01*
X118532732Y-120369431D01*
X118326497Y-120273261D01*
X118326488Y-120273258D01*
X118106697Y-120214366D01*
X118106693Y-120214365D01*
X118106692Y-120214365D01*
X118106691Y-120214364D01*
X118106686Y-120214364D01*
X117880002Y-120194532D01*
X117879998Y-120194532D01*
X117653313Y-120214364D01*
X117653302Y-120214366D01*
X117433511Y-120273258D01*
X117433502Y-120273261D01*
X117227267Y-120369431D01*
X117227265Y-120369432D01*
X117040858Y-120499954D01*
X116879954Y-120660858D01*
X116749432Y-120847265D01*
X116749431Y-120847267D01*
X116653261Y-121053502D01*
X116653258Y-121053511D01*
X116594366Y-121273302D01*
X116594364Y-121273313D01*
X116574532Y-121499998D01*
X113941790Y-121499998D01*
X113966739Y-121446496D01*
X114025635Y-121226692D01*
X114045468Y-121000000D01*
X114044543Y-120989432D01*
X114036130Y-120893262D01*
X114025635Y-120773308D01*
X113966739Y-120553504D01*
X113870568Y-120347266D01*
X113772839Y-120207693D01*
X113740045Y-120160858D01*
X113579141Y-119999954D01*
X113392734Y-119869432D01*
X113392732Y-119869431D01*
X113186497Y-119773261D01*
X113186488Y-119773258D01*
X112966697Y-119714366D01*
X112966693Y-119714365D01*
X112966692Y-119714365D01*
X112966691Y-119714364D01*
X112966686Y-119714364D01*
X112740002Y-119694532D01*
X112739998Y-119694532D01*
X112513313Y-119714364D01*
X112513302Y-119714366D01*
X112293511Y-119773258D01*
X112293502Y-119773261D01*
X112087267Y-119869431D01*
X112087265Y-119869432D01*
X111900858Y-119999954D01*
X111739954Y-120160858D01*
X111609432Y-120347265D01*
X111609431Y-120347267D01*
X111513261Y-120553502D01*
X111513258Y-120553511D01*
X111454366Y-120773302D01*
X111454364Y-120773313D01*
X111434532Y-120999998D01*
X106979809Y-120999998D01*
X106979809Y-115999998D01*
X111434532Y-115999998D01*
X111434532Y-116000001D01*
X111454364Y-116226686D01*
X111454366Y-116226697D01*
X111513258Y-116446488D01*
X111513261Y-116446497D01*
X111609431Y-116652732D01*
X111609432Y-116652734D01*
X111739954Y-116839141D01*
X111900858Y-117000045D01*
X111900861Y-117000047D01*
X112087266Y-117130568D01*
X112293504Y-117226739D01*
X112513308Y-117285635D01*
X112675230Y-117299801D01*
X112739998Y-117305468D01*
X112740000Y-117305468D01*
X112740002Y-117305468D01*
X112796673Y-117300509D01*
X112966692Y-117285635D01*
X113186496Y-117226739D01*
X113392734Y-117130568D01*
X113579139Y-117000047D01*
X113740047Y-116839139D01*
X113870568Y-116652734D01*
X113966739Y-116446496D01*
X114025635Y-116226692D01*
X114045468Y-116000000D01*
X114025635Y-115773308D01*
X113966739Y-115553504D01*
X113870568Y-115347266D01*
X113740047Y-115160861D01*
X113740045Y-115160858D01*
X113579185Y-114999998D01*
X116574532Y-114999998D01*
X116574532Y-115000001D01*
X116594364Y-115226686D01*
X116594366Y-115226697D01*
X116653258Y-115446488D01*
X116653261Y-115446497D01*
X116749431Y-115652732D01*
X116749432Y-115652734D01*
X116879954Y-115839141D01*
X117040858Y-116000045D01*
X117040861Y-116000047D01*
X117227266Y-116130568D01*
X117433504Y-116226739D01*
X117653308Y-116285635D01*
X117815230Y-116299801D01*
X117879998Y-116305468D01*
X117880000Y-116305468D01*
X117880002Y-116305468D01*
X117936673Y-116300509D01*
X118106692Y-116285635D01*
X118326496Y-116226739D01*
X118532734Y-116130568D01*
X118719139Y-116000047D01*
X118880047Y-115839139D01*
X119010568Y-115652734D01*
X119106739Y-115446496D01*
X119165635Y-115226692D01*
X119185468Y-115000000D01*
X119185468Y-114999998D01*
X124194532Y-114999998D01*
X124194532Y-115000001D01*
X124214364Y-115226686D01*
X124214366Y-115226697D01*
X124273258Y-115446488D01*
X124273261Y-115446497D01*
X124369431Y-115652732D01*
X124369432Y-115652734D01*
X124499954Y-115839141D01*
X124660858Y-116000045D01*
X124660861Y-116000047D01*
X124847266Y-116130568D01*
X125053504Y-116226739D01*
X125273308Y-116285635D01*
X125435230Y-116299801D01*
X125499998Y-116305468D01*
X125500000Y-116305468D01*
X125500002Y-116305468D01*
X125556673Y-116300509D01*
X125726692Y-116285635D01*
X125946496Y-116226739D01*
X126152734Y-116130568D01*
X126339139Y-116000047D01*
X126500047Y-115839139D01*
X126630568Y-115652734D01*
X126726739Y-115446496D01*
X126785635Y-115226692D01*
X126805468Y-115000000D01*
X126785635Y-114773308D01*
X126726739Y-114553504D01*
X126630568Y-114347266D01*
X126500047Y-114160861D01*
X126500045Y-114160858D01*
X126339141Y-113999954D01*
X126152734Y-113869432D01*
X126152732Y-113869431D01*
X125946497Y-113773261D01*
X125946488Y-113773258D01*
X125726697Y-113714366D01*
X125726693Y-113714365D01*
X125726692Y-113714365D01*
X125726691Y-113714364D01*
X125726686Y-113714364D01*
X125500002Y-113694532D01*
X125499998Y-113694532D01*
X125273313Y-113714364D01*
X125273302Y-113714366D01*
X125053511Y-113773258D01*
X125053502Y-113773261D01*
X124847267Y-113869431D01*
X124847265Y-113869432D01*
X124660858Y-113999954D01*
X124499954Y-114160858D01*
X124369432Y-114347265D01*
X124369431Y-114347267D01*
X124273261Y-114553502D01*
X124273258Y-114553511D01*
X124214366Y-114773302D01*
X124214364Y-114773313D01*
X124194532Y-114999998D01*
X119185468Y-114999998D01*
X119165635Y-114773308D01*
X119106739Y-114553504D01*
X119010568Y-114347266D01*
X118880047Y-114160861D01*
X118880045Y-114160858D01*
X118719141Y-113999954D01*
X118532734Y-113869432D01*
X118532732Y-113869431D01*
X118326497Y-113773261D01*
X118326488Y-113773258D01*
X118106697Y-113714366D01*
X118106693Y-113714365D01*
X118106692Y-113714365D01*
X118106691Y-113714364D01*
X118106686Y-113714364D01*
X117880002Y-113694532D01*
X117879998Y-113694532D01*
X117653313Y-113714364D01*
X117653302Y-113714366D01*
X117433511Y-113773258D01*
X117433502Y-113773261D01*
X117227267Y-113869431D01*
X117227265Y-113869432D01*
X117040858Y-113999954D01*
X116879954Y-114160858D01*
X116749432Y-114347265D01*
X116749431Y-114347267D01*
X116653261Y-114553502D01*
X116653258Y-114553511D01*
X116594366Y-114773302D01*
X116594364Y-114773313D01*
X116574532Y-114999998D01*
X113579185Y-114999998D01*
X113579141Y-114999954D01*
X113392734Y-114869432D01*
X113392732Y-114869431D01*
X113186497Y-114773261D01*
X113186488Y-114773258D01*
X112966697Y-114714366D01*
X112966693Y-114714365D01*
X112966692Y-114714365D01*
X112966691Y-114714364D01*
X112966686Y-114714364D01*
X112740002Y-114694532D01*
X112739998Y-114694532D01*
X112513313Y-114714364D01*
X112513302Y-114714366D01*
X112293511Y-114773258D01*
X112293502Y-114773261D01*
X112087267Y-114869431D01*
X112087265Y-114869432D01*
X111900858Y-114999954D01*
X111739954Y-115160858D01*
X111609432Y-115347265D01*
X111609431Y-115347267D01*
X111513261Y-115553502D01*
X111513258Y-115553511D01*
X111454366Y-115773302D01*
X111454364Y-115773313D01*
X111434532Y-115999998D01*
X106979809Y-115999998D01*
X106979809Y-103624500D01*
X106999494Y-103557461D01*
X107052298Y-103511706D01*
X107103809Y-103500500D01*
X160854809Y-103500500D01*
X160921848Y-103520185D01*
G37*
%TD.AperFunction*%
%TA.AperFunction,Conductor*%
G36*
X138830000Y-123398872D02*
G01*
X139026317Y-123346269D01*
X139026326Y-123346265D01*
X139232482Y-123250134D01*
X139418820Y-123119657D01*
X139579657Y-122958820D01*
X139710132Y-122772484D01*
X139737341Y-122714134D01*
X139783513Y-122661695D01*
X139850707Y-122642542D01*
X139917588Y-122662757D01*
X139962106Y-122714133D01*
X139989431Y-122772732D01*
X139989432Y-122772734D01*
X140119954Y-122959141D01*
X140280858Y-123120045D01*
X140280861Y-123120047D01*
X140467266Y-123250568D01*
X140673504Y-123346739D01*
X140673509Y-123346740D01*
X140673511Y-123346741D01*
X140709462Y-123356374D01*
X140893308Y-123405635D01*
X141050780Y-123419412D01*
X141119998Y-123425468D01*
X141120000Y-123425468D01*
X141120002Y-123425468D01*
X141189220Y-123419412D01*
X141346692Y-123405635D01*
X141415048Y-123387319D01*
X141484896Y-123388980D01*
X141534822Y-123419412D01*
X141756016Y-123640606D01*
X141756045Y-123640637D01*
X141778227Y-123662819D01*
X141811712Y-123724142D01*
X141806728Y-123793834D01*
X141764856Y-123849767D01*
X141699392Y-123874184D01*
X141690546Y-123874500D01*
X138810452Y-123874500D01*
X138743413Y-123854815D01*
X138722771Y-123838181D01*
X138366319Y-123481729D01*
X138332834Y-123420406D01*
X138330000Y-123394048D01*
X138330000Y-122435686D01*
X138334394Y-122440080D01*
X138425606Y-122492741D01*
X138527339Y-122520000D01*
X138632661Y-122520000D01*
X138734394Y-122492741D01*
X138825606Y-122440080D01*
X138830000Y-122435686D01*
X138830000Y-123398872D01*
G37*
%TD.AperFunction*%
%TD*%
M02*
