M48
; DRILL file {KiCad 8.0.6} date 2025-01-07T17:27:55+0200
; FORMAT={-:-/ absolute / inch / decimal}
; #@! TF.CreationDate,2025-01-07T17:27:55+02:00
; #@! TF.GenerationSoftware,Kicad,Pcbnew,8.0.6
; #@! TF.FileFunction,Plated,1,2,PTH
FMAT,2
INCH
; #@! TA.AperFunction,Plated,PTH,ComponentDrill
T1C0.0315
%
G90
G05
T1
X4.4386Y-4.5669
X4.4386Y-4.7638
X4.5197Y-5.0102
X4.5197Y-5.6102
X4.6197Y-5.0102
X4.6197Y-5.6102
X4.6409Y-4.5276
X4.6409Y-4.7835
X4.7197Y-5.0102
X4.7197Y-5.6102
X4.8197Y-5.0102
X4.8197Y-5.6102
X4.9197Y-5.0102
X4.9197Y-5.6102
X4.9409Y-4.5276
X4.9409Y-4.7835
X5.0197Y-5.0102
X5.0197Y-5.6102
X5.1197Y-5.0102
X5.1197Y-5.6102
X5.1559Y-4.5079
X5.1559Y-4.8079
X5.2197Y-5.0102
X5.2197Y-5.6102
X5.2559Y-4.5079
X5.2559Y-4.8079
X5.3197Y-5.0102
X5.3197Y-5.6102
X5.3559Y-4.5079
X5.3559Y-4.8079
X5.4197Y-5.0102
X5.4197Y-5.6102
X5.4559Y-4.5079
X5.4559Y-4.8079
X5.5197Y-5.0102
X5.5197Y-5.6102
X5.5559Y-4.5079
X5.5559Y-4.8079
X5.6197Y-5.0102
X5.6197Y-5.6102
X5.6559Y-4.5079
X5.6559Y-4.8079
X5.7197Y-5.0102
X5.7197Y-5.6102
X5.7559Y-4.5079
X5.7559Y-4.8079
X5.8197Y-5.0102
X5.8197Y-5.6102
X5.8559Y-4.5079
X5.8559Y-4.8079
X5.9197Y-5.0102
X5.9197Y-5.6102
X6.0197Y-5.0102
X6.0197Y-5.6102
X6.0827Y-4.6063
X6.0827Y-4.8031
M30
