%TF.GenerationSoftware,KiCad,Pcbnew,8.0.6*%
%TF.CreationDate,2025-01-07T17:27:52+02:00*%
%TF.ProjectId,SVI-328-MegaROM,5356492d-3332-4382-9d4d-656761524f4d,1.0*%
%TF.SameCoordinates,Original*%
%TF.FileFunction,Legend,Bot*%
%TF.FilePolarity,Positive*%
%FSLAX46Y46*%
G04 Gerber Fmt 4.6, Leading zero omitted, Abs format (unit mm)*
G04 Created by KiCad (PCBNEW 8.0.6) date 2025-01-07 17:27:52*
%MOMM*%
%LPD*%
G01*
G04 APERTURE LIST*
%ADD10C,0.150000*%
%ADD11C,0.200000*%
G04 APERTURE END LIST*
D10*
X145752383Y-109094295D02*
X145295240Y-109094295D01*
X145523812Y-109894295D02*
X145523812Y-109094295D01*
X145028573Y-109894295D02*
X145028573Y-109094295D01*
X144685716Y-109894295D02*
X144685716Y-109475247D01*
X144685716Y-109475247D02*
X144723811Y-109399057D01*
X144723811Y-109399057D02*
X144800002Y-109360961D01*
X144800002Y-109360961D02*
X144914288Y-109360961D01*
X144914288Y-109360961D02*
X144990478Y-109399057D01*
X144990478Y-109399057D02*
X145028573Y-109437152D01*
X144304763Y-109894295D02*
X144304763Y-109360961D01*
X144304763Y-109094295D02*
X144342859Y-109132390D01*
X144342859Y-109132390D02*
X144304763Y-109170485D01*
X144304763Y-109170485D02*
X144266668Y-109132390D01*
X144266668Y-109132390D02*
X144304763Y-109094295D01*
X144304763Y-109094295D02*
X144304763Y-109170485D01*
X143961907Y-109856200D02*
X143885716Y-109894295D01*
X143885716Y-109894295D02*
X143733335Y-109894295D01*
X143733335Y-109894295D02*
X143657145Y-109856200D01*
X143657145Y-109856200D02*
X143619049Y-109780009D01*
X143619049Y-109780009D02*
X143619049Y-109741914D01*
X143619049Y-109741914D02*
X143657145Y-109665723D01*
X143657145Y-109665723D02*
X143733335Y-109627628D01*
X143733335Y-109627628D02*
X143847621Y-109627628D01*
X143847621Y-109627628D02*
X143923811Y-109589533D01*
X143923811Y-109589533D02*
X143961907Y-109513342D01*
X143961907Y-109513342D02*
X143961907Y-109475247D01*
X143961907Y-109475247D02*
X143923811Y-109399057D01*
X143923811Y-109399057D02*
X143847621Y-109360961D01*
X143847621Y-109360961D02*
X143733335Y-109360961D01*
X143733335Y-109360961D02*
X143657145Y-109399057D01*
X142704764Y-109856200D02*
X142628573Y-109894295D01*
X142628573Y-109894295D02*
X142476192Y-109894295D01*
X142476192Y-109894295D02*
X142400002Y-109856200D01*
X142400002Y-109856200D02*
X142361906Y-109780009D01*
X142361906Y-109780009D02*
X142361906Y-109741914D01*
X142361906Y-109741914D02*
X142400002Y-109665723D01*
X142400002Y-109665723D02*
X142476192Y-109627628D01*
X142476192Y-109627628D02*
X142590478Y-109627628D01*
X142590478Y-109627628D02*
X142666668Y-109589533D01*
X142666668Y-109589533D02*
X142704764Y-109513342D01*
X142704764Y-109513342D02*
X142704764Y-109475247D01*
X142704764Y-109475247D02*
X142666668Y-109399057D01*
X142666668Y-109399057D02*
X142590478Y-109360961D01*
X142590478Y-109360961D02*
X142476192Y-109360961D01*
X142476192Y-109360961D02*
X142400002Y-109399057D01*
X142019049Y-109894295D02*
X142019049Y-109360961D01*
X142019049Y-109094295D02*
X142057145Y-109132390D01*
X142057145Y-109132390D02*
X142019049Y-109170485D01*
X142019049Y-109170485D02*
X141980954Y-109132390D01*
X141980954Y-109132390D02*
X142019049Y-109094295D01*
X142019049Y-109094295D02*
X142019049Y-109170485D01*
X141295240Y-109894295D02*
X141295240Y-109094295D01*
X141295240Y-109856200D02*
X141371431Y-109894295D01*
X141371431Y-109894295D02*
X141523812Y-109894295D01*
X141523812Y-109894295D02*
X141600002Y-109856200D01*
X141600002Y-109856200D02*
X141638097Y-109818104D01*
X141638097Y-109818104D02*
X141676193Y-109741914D01*
X141676193Y-109741914D02*
X141676193Y-109513342D01*
X141676193Y-109513342D02*
X141638097Y-109437152D01*
X141638097Y-109437152D02*
X141600002Y-109399057D01*
X141600002Y-109399057D02*
X141523812Y-109360961D01*
X141523812Y-109360961D02*
X141371431Y-109360961D01*
X141371431Y-109360961D02*
X141295240Y-109399057D01*
X140609525Y-109856200D02*
X140685716Y-109894295D01*
X140685716Y-109894295D02*
X140838097Y-109894295D01*
X140838097Y-109894295D02*
X140914287Y-109856200D01*
X140914287Y-109856200D02*
X140952383Y-109780009D01*
X140952383Y-109780009D02*
X140952383Y-109475247D01*
X140952383Y-109475247D02*
X140914287Y-109399057D01*
X140914287Y-109399057D02*
X140838097Y-109360961D01*
X140838097Y-109360961D02*
X140685716Y-109360961D01*
X140685716Y-109360961D02*
X140609525Y-109399057D01*
X140609525Y-109399057D02*
X140571430Y-109475247D01*
X140571430Y-109475247D02*
X140571430Y-109551438D01*
X140571430Y-109551438D02*
X140952383Y-109627628D01*
X139619049Y-109894295D02*
X139619049Y-109360961D01*
X139619049Y-109437152D02*
X139580954Y-109399057D01*
X139580954Y-109399057D02*
X139504764Y-109360961D01*
X139504764Y-109360961D02*
X139390478Y-109360961D01*
X139390478Y-109360961D02*
X139314287Y-109399057D01*
X139314287Y-109399057D02*
X139276192Y-109475247D01*
X139276192Y-109475247D02*
X139276192Y-109894295D01*
X139276192Y-109475247D02*
X139238097Y-109399057D01*
X139238097Y-109399057D02*
X139161906Y-109360961D01*
X139161906Y-109360961D02*
X139047621Y-109360961D01*
X139047621Y-109360961D02*
X138971430Y-109399057D01*
X138971430Y-109399057D02*
X138933335Y-109475247D01*
X138933335Y-109475247D02*
X138933335Y-109894295D01*
X138209525Y-109360961D02*
X138209525Y-109894295D01*
X138552382Y-109360961D02*
X138552382Y-109780009D01*
X138552382Y-109780009D02*
X138514287Y-109856200D01*
X138514287Y-109856200D02*
X138438097Y-109894295D01*
X138438097Y-109894295D02*
X138323811Y-109894295D01*
X138323811Y-109894295D02*
X138247620Y-109856200D01*
X138247620Y-109856200D02*
X138209525Y-109818104D01*
X137866668Y-109856200D02*
X137790477Y-109894295D01*
X137790477Y-109894295D02*
X137638096Y-109894295D01*
X137638096Y-109894295D02*
X137561906Y-109856200D01*
X137561906Y-109856200D02*
X137523810Y-109780009D01*
X137523810Y-109780009D02*
X137523810Y-109741914D01*
X137523810Y-109741914D02*
X137561906Y-109665723D01*
X137561906Y-109665723D02*
X137638096Y-109627628D01*
X137638096Y-109627628D02*
X137752382Y-109627628D01*
X137752382Y-109627628D02*
X137828572Y-109589533D01*
X137828572Y-109589533D02*
X137866668Y-109513342D01*
X137866668Y-109513342D02*
X137866668Y-109475247D01*
X137866668Y-109475247D02*
X137828572Y-109399057D01*
X137828572Y-109399057D02*
X137752382Y-109360961D01*
X137752382Y-109360961D02*
X137638096Y-109360961D01*
X137638096Y-109360961D02*
X137561906Y-109399057D01*
X137295239Y-109360961D02*
X136990477Y-109360961D01*
X137180953Y-109094295D02*
X137180953Y-109780009D01*
X137180953Y-109780009D02*
X137142858Y-109856200D01*
X137142858Y-109856200D02*
X137066668Y-109894295D01*
X137066668Y-109894295D02*
X136990477Y-109894295D01*
X136114286Y-109894295D02*
X136114286Y-109094295D01*
X136114286Y-109399057D02*
X136038096Y-109360961D01*
X136038096Y-109360961D02*
X135885715Y-109360961D01*
X135885715Y-109360961D02*
X135809524Y-109399057D01*
X135809524Y-109399057D02*
X135771429Y-109437152D01*
X135771429Y-109437152D02*
X135733334Y-109513342D01*
X135733334Y-109513342D02*
X135733334Y-109741914D01*
X135733334Y-109741914D02*
X135771429Y-109818104D01*
X135771429Y-109818104D02*
X135809524Y-109856200D01*
X135809524Y-109856200D02*
X135885715Y-109894295D01*
X135885715Y-109894295D02*
X136038096Y-109894295D01*
X136038096Y-109894295D02*
X136114286Y-109856200D01*
X135085714Y-109856200D02*
X135161905Y-109894295D01*
X135161905Y-109894295D02*
X135314286Y-109894295D01*
X135314286Y-109894295D02*
X135390476Y-109856200D01*
X135390476Y-109856200D02*
X135428572Y-109780009D01*
X135428572Y-109780009D02*
X135428572Y-109475247D01*
X135428572Y-109475247D02*
X135390476Y-109399057D01*
X135390476Y-109399057D02*
X135314286Y-109360961D01*
X135314286Y-109360961D02*
X135161905Y-109360961D01*
X135161905Y-109360961D02*
X135085714Y-109399057D01*
X135085714Y-109399057D02*
X135047619Y-109475247D01*
X135047619Y-109475247D02*
X135047619Y-109551438D01*
X135047619Y-109551438D02*
X135428572Y-109627628D01*
X134209524Y-109360961D02*
X133904762Y-109360961D01*
X134095238Y-109894295D02*
X134095238Y-109208580D01*
X134095238Y-109208580D02*
X134057143Y-109132390D01*
X134057143Y-109132390D02*
X133980953Y-109094295D01*
X133980953Y-109094295D02*
X133904762Y-109094295D01*
X133295238Y-109894295D02*
X133295238Y-109475247D01*
X133295238Y-109475247D02*
X133333333Y-109399057D01*
X133333333Y-109399057D02*
X133409524Y-109360961D01*
X133409524Y-109360961D02*
X133561905Y-109360961D01*
X133561905Y-109360961D02*
X133638095Y-109399057D01*
X133295238Y-109856200D02*
X133371429Y-109894295D01*
X133371429Y-109894295D02*
X133561905Y-109894295D01*
X133561905Y-109894295D02*
X133638095Y-109856200D01*
X133638095Y-109856200D02*
X133676191Y-109780009D01*
X133676191Y-109780009D02*
X133676191Y-109703819D01*
X133676191Y-109703819D02*
X133638095Y-109627628D01*
X133638095Y-109627628D02*
X133561905Y-109589533D01*
X133561905Y-109589533D02*
X133371429Y-109589533D01*
X133371429Y-109589533D02*
X133295238Y-109551438D01*
X132571428Y-109856200D02*
X132647619Y-109894295D01*
X132647619Y-109894295D02*
X132800000Y-109894295D01*
X132800000Y-109894295D02*
X132876190Y-109856200D01*
X132876190Y-109856200D02*
X132914285Y-109818104D01*
X132914285Y-109818104D02*
X132952381Y-109741914D01*
X132952381Y-109741914D02*
X132952381Y-109513342D01*
X132952381Y-109513342D02*
X132914285Y-109437152D01*
X132914285Y-109437152D02*
X132876190Y-109399057D01*
X132876190Y-109399057D02*
X132800000Y-109360961D01*
X132800000Y-109360961D02*
X132647619Y-109360961D01*
X132647619Y-109360961D02*
X132571428Y-109399057D01*
X132228571Y-109894295D02*
X132228571Y-109360961D01*
X132228571Y-109094295D02*
X132266667Y-109132390D01*
X132266667Y-109132390D02*
X132228571Y-109170485D01*
X132228571Y-109170485D02*
X132190476Y-109132390D01*
X132190476Y-109132390D02*
X132228571Y-109094295D01*
X132228571Y-109094295D02*
X132228571Y-109170485D01*
X131847619Y-109360961D02*
X131847619Y-109894295D01*
X131847619Y-109437152D02*
X131809524Y-109399057D01*
X131809524Y-109399057D02*
X131733334Y-109360961D01*
X131733334Y-109360961D02*
X131619048Y-109360961D01*
X131619048Y-109360961D02*
X131542857Y-109399057D01*
X131542857Y-109399057D02*
X131504762Y-109475247D01*
X131504762Y-109475247D02*
X131504762Y-109894295D01*
X130780952Y-109360961D02*
X130780952Y-110008580D01*
X130780952Y-110008580D02*
X130819047Y-110084771D01*
X130819047Y-110084771D02*
X130857143Y-110122866D01*
X130857143Y-110122866D02*
X130933333Y-110160961D01*
X130933333Y-110160961D02*
X131047619Y-110160961D01*
X131047619Y-110160961D02*
X131123809Y-110122866D01*
X130780952Y-109856200D02*
X130857143Y-109894295D01*
X130857143Y-109894295D02*
X131009524Y-109894295D01*
X131009524Y-109894295D02*
X131085714Y-109856200D01*
X131085714Y-109856200D02*
X131123809Y-109818104D01*
X131123809Y-109818104D02*
X131161905Y-109741914D01*
X131161905Y-109741914D02*
X131161905Y-109513342D01*
X131161905Y-109513342D02*
X131123809Y-109437152D01*
X131123809Y-109437152D02*
X131085714Y-109399057D01*
X131085714Y-109399057D02*
X131009524Y-109360961D01*
X131009524Y-109360961D02*
X130857143Y-109360961D01*
X130857143Y-109360961D02*
X130780952Y-109399057D01*
X129904761Y-109360961D02*
X129599999Y-109360961D01*
X129790475Y-109094295D02*
X129790475Y-109780009D01*
X129790475Y-109780009D02*
X129752380Y-109856200D01*
X129752380Y-109856200D02*
X129676190Y-109894295D01*
X129676190Y-109894295D02*
X129599999Y-109894295D01*
X129333332Y-109894295D02*
X129333332Y-109094295D01*
X128990475Y-109894295D02*
X128990475Y-109475247D01*
X128990475Y-109475247D02*
X129028570Y-109399057D01*
X129028570Y-109399057D02*
X129104761Y-109360961D01*
X129104761Y-109360961D02*
X129219047Y-109360961D01*
X129219047Y-109360961D02*
X129295237Y-109399057D01*
X129295237Y-109399057D02*
X129333332Y-109437152D01*
X128304760Y-109856200D02*
X128380951Y-109894295D01*
X128380951Y-109894295D02*
X128533332Y-109894295D01*
X128533332Y-109894295D02*
X128609522Y-109856200D01*
X128609522Y-109856200D02*
X128647618Y-109780009D01*
X128647618Y-109780009D02*
X128647618Y-109475247D01*
X128647618Y-109475247D02*
X128609522Y-109399057D01*
X128609522Y-109399057D02*
X128533332Y-109360961D01*
X128533332Y-109360961D02*
X128380951Y-109360961D01*
X128380951Y-109360961D02*
X128304760Y-109399057D01*
X128304760Y-109399057D02*
X128266665Y-109475247D01*
X128266665Y-109475247D02*
X128266665Y-109551438D01*
X128266665Y-109551438D02*
X128647618Y-109627628D01*
X127314284Y-109894295D02*
X127314284Y-109094295D01*
X127238094Y-109589533D02*
X127009522Y-109894295D01*
X127009522Y-109360961D02*
X127314284Y-109665723D01*
X126361903Y-109856200D02*
X126438094Y-109894295D01*
X126438094Y-109894295D02*
X126590475Y-109894295D01*
X126590475Y-109894295D02*
X126666665Y-109856200D01*
X126666665Y-109856200D02*
X126704761Y-109780009D01*
X126704761Y-109780009D02*
X126704761Y-109475247D01*
X126704761Y-109475247D02*
X126666665Y-109399057D01*
X126666665Y-109399057D02*
X126590475Y-109360961D01*
X126590475Y-109360961D02*
X126438094Y-109360961D01*
X126438094Y-109360961D02*
X126361903Y-109399057D01*
X126361903Y-109399057D02*
X126323808Y-109475247D01*
X126323808Y-109475247D02*
X126323808Y-109551438D01*
X126323808Y-109551438D02*
X126704761Y-109627628D01*
X126057142Y-109360961D02*
X125866666Y-109894295D01*
X125676189Y-109360961D02*
X125866666Y-109894295D01*
X125866666Y-109894295D02*
X125942856Y-110084771D01*
X125942856Y-110084771D02*
X125980951Y-110122866D01*
X125980951Y-110122866D02*
X126057142Y-110160961D01*
X125371427Y-109894295D02*
X125371427Y-109094295D01*
X125371427Y-109399057D02*
X125295237Y-109360961D01*
X125295237Y-109360961D02*
X125142856Y-109360961D01*
X125142856Y-109360961D02*
X125066665Y-109399057D01*
X125066665Y-109399057D02*
X125028570Y-109437152D01*
X125028570Y-109437152D02*
X124990475Y-109513342D01*
X124990475Y-109513342D02*
X124990475Y-109741914D01*
X124990475Y-109741914D02*
X125028570Y-109818104D01*
X125028570Y-109818104D02*
X125066665Y-109856200D01*
X125066665Y-109856200D02*
X125142856Y-109894295D01*
X125142856Y-109894295D02*
X125295237Y-109894295D01*
X125295237Y-109894295D02*
X125371427Y-109856200D01*
X124533332Y-109894295D02*
X124609522Y-109856200D01*
X124609522Y-109856200D02*
X124647617Y-109818104D01*
X124647617Y-109818104D02*
X124685713Y-109741914D01*
X124685713Y-109741914D02*
X124685713Y-109513342D01*
X124685713Y-109513342D02*
X124647617Y-109437152D01*
X124647617Y-109437152D02*
X124609522Y-109399057D01*
X124609522Y-109399057D02*
X124533332Y-109360961D01*
X124533332Y-109360961D02*
X124419046Y-109360961D01*
X124419046Y-109360961D02*
X124342855Y-109399057D01*
X124342855Y-109399057D02*
X124304760Y-109437152D01*
X124304760Y-109437152D02*
X124266665Y-109513342D01*
X124266665Y-109513342D02*
X124266665Y-109741914D01*
X124266665Y-109741914D02*
X124304760Y-109818104D01*
X124304760Y-109818104D02*
X124342855Y-109856200D01*
X124342855Y-109856200D02*
X124419046Y-109894295D01*
X124419046Y-109894295D02*
X124533332Y-109894295D01*
X123580950Y-109894295D02*
X123580950Y-109475247D01*
X123580950Y-109475247D02*
X123619045Y-109399057D01*
X123619045Y-109399057D02*
X123695236Y-109360961D01*
X123695236Y-109360961D02*
X123847617Y-109360961D01*
X123847617Y-109360961D02*
X123923807Y-109399057D01*
X123580950Y-109856200D02*
X123657141Y-109894295D01*
X123657141Y-109894295D02*
X123847617Y-109894295D01*
X123847617Y-109894295D02*
X123923807Y-109856200D01*
X123923807Y-109856200D02*
X123961903Y-109780009D01*
X123961903Y-109780009D02*
X123961903Y-109703819D01*
X123961903Y-109703819D02*
X123923807Y-109627628D01*
X123923807Y-109627628D02*
X123847617Y-109589533D01*
X123847617Y-109589533D02*
X123657141Y-109589533D01*
X123657141Y-109589533D02*
X123580950Y-109551438D01*
X123199997Y-109894295D02*
X123199997Y-109360961D01*
X123199997Y-109513342D02*
X123161902Y-109437152D01*
X123161902Y-109437152D02*
X123123807Y-109399057D01*
X123123807Y-109399057D02*
X123047616Y-109360961D01*
X123047616Y-109360961D02*
X122971426Y-109360961D01*
X122361902Y-109894295D02*
X122361902Y-109094295D01*
X122361902Y-109856200D02*
X122438093Y-109894295D01*
X122438093Y-109894295D02*
X122590474Y-109894295D01*
X122590474Y-109894295D02*
X122666664Y-109856200D01*
X122666664Y-109856200D02*
X122704759Y-109818104D01*
X122704759Y-109818104D02*
X122742855Y-109741914D01*
X122742855Y-109741914D02*
X122742855Y-109513342D01*
X122742855Y-109513342D02*
X122704759Y-109437152D01*
X122704759Y-109437152D02*
X122666664Y-109399057D01*
X122666664Y-109399057D02*
X122590474Y-109360961D01*
X122590474Y-109360961D02*
X122438093Y-109360961D01*
X122438093Y-109360961D02*
X122361902Y-109399057D01*
D11*
X144321427Y-107234600D02*
X144107142Y-107306028D01*
X144107142Y-107306028D02*
X143749999Y-107306028D01*
X143749999Y-107306028D02*
X143607142Y-107234600D01*
X143607142Y-107234600D02*
X143535713Y-107163171D01*
X143535713Y-107163171D02*
X143464284Y-107020314D01*
X143464284Y-107020314D02*
X143464284Y-106877457D01*
X143464284Y-106877457D02*
X143535713Y-106734600D01*
X143535713Y-106734600D02*
X143607142Y-106663171D01*
X143607142Y-106663171D02*
X143749999Y-106591742D01*
X143749999Y-106591742D02*
X144035713Y-106520314D01*
X144035713Y-106520314D02*
X144178570Y-106448885D01*
X144178570Y-106448885D02*
X144249999Y-106377457D01*
X144249999Y-106377457D02*
X144321427Y-106234600D01*
X144321427Y-106234600D02*
X144321427Y-106091742D01*
X144321427Y-106091742D02*
X144249999Y-105948885D01*
X144249999Y-105948885D02*
X144178570Y-105877457D01*
X144178570Y-105877457D02*
X144035713Y-105806028D01*
X144035713Y-105806028D02*
X143678570Y-105806028D01*
X143678570Y-105806028D02*
X143464284Y-105877457D01*
X143035713Y-105806028D02*
X142535713Y-107306028D01*
X142535713Y-107306028D02*
X142035713Y-105806028D01*
X141535714Y-107306028D02*
X141535714Y-105806028D01*
X140821428Y-106734600D02*
X139678571Y-106734600D01*
X139107142Y-105806028D02*
X138178570Y-105806028D01*
X138178570Y-105806028D02*
X138678570Y-106377457D01*
X138678570Y-106377457D02*
X138464285Y-106377457D01*
X138464285Y-106377457D02*
X138321428Y-106448885D01*
X138321428Y-106448885D02*
X138249999Y-106520314D01*
X138249999Y-106520314D02*
X138178570Y-106663171D01*
X138178570Y-106663171D02*
X138178570Y-107020314D01*
X138178570Y-107020314D02*
X138249999Y-107163171D01*
X138249999Y-107163171D02*
X138321428Y-107234600D01*
X138321428Y-107234600D02*
X138464285Y-107306028D01*
X138464285Y-107306028D02*
X138892856Y-107306028D01*
X138892856Y-107306028D02*
X139035713Y-107234600D01*
X139035713Y-107234600D02*
X139107142Y-107163171D01*
X137607142Y-105948885D02*
X137535714Y-105877457D01*
X137535714Y-105877457D02*
X137392857Y-105806028D01*
X137392857Y-105806028D02*
X137035714Y-105806028D01*
X137035714Y-105806028D02*
X136892857Y-105877457D01*
X136892857Y-105877457D02*
X136821428Y-105948885D01*
X136821428Y-105948885D02*
X136749999Y-106091742D01*
X136749999Y-106091742D02*
X136749999Y-106234600D01*
X136749999Y-106234600D02*
X136821428Y-106448885D01*
X136821428Y-106448885D02*
X137678571Y-107306028D01*
X137678571Y-107306028D02*
X136749999Y-107306028D01*
X135892857Y-106448885D02*
X136035714Y-106377457D01*
X136035714Y-106377457D02*
X136107143Y-106306028D01*
X136107143Y-106306028D02*
X136178571Y-106163171D01*
X136178571Y-106163171D02*
X136178571Y-106091742D01*
X136178571Y-106091742D02*
X136107143Y-105948885D01*
X136107143Y-105948885D02*
X136035714Y-105877457D01*
X136035714Y-105877457D02*
X135892857Y-105806028D01*
X135892857Y-105806028D02*
X135607143Y-105806028D01*
X135607143Y-105806028D02*
X135464286Y-105877457D01*
X135464286Y-105877457D02*
X135392857Y-105948885D01*
X135392857Y-105948885D02*
X135321428Y-106091742D01*
X135321428Y-106091742D02*
X135321428Y-106163171D01*
X135321428Y-106163171D02*
X135392857Y-106306028D01*
X135392857Y-106306028D02*
X135464286Y-106377457D01*
X135464286Y-106377457D02*
X135607143Y-106448885D01*
X135607143Y-106448885D02*
X135892857Y-106448885D01*
X135892857Y-106448885D02*
X136035714Y-106520314D01*
X136035714Y-106520314D02*
X136107143Y-106591742D01*
X136107143Y-106591742D02*
X136178571Y-106734600D01*
X136178571Y-106734600D02*
X136178571Y-107020314D01*
X136178571Y-107020314D02*
X136107143Y-107163171D01*
X136107143Y-107163171D02*
X136035714Y-107234600D01*
X136035714Y-107234600D02*
X135892857Y-107306028D01*
X135892857Y-107306028D02*
X135607143Y-107306028D01*
X135607143Y-107306028D02*
X135464286Y-107234600D01*
X135464286Y-107234600D02*
X135392857Y-107163171D01*
X135392857Y-107163171D02*
X135321428Y-107020314D01*
X135321428Y-107020314D02*
X135321428Y-106734600D01*
X135321428Y-106734600D02*
X135392857Y-106591742D01*
X135392857Y-106591742D02*
X135464286Y-106520314D01*
X135464286Y-106520314D02*
X135607143Y-106448885D01*
X133535715Y-107306028D02*
X133535715Y-105806028D01*
X133535715Y-105806028D02*
X133035715Y-106877457D01*
X133035715Y-106877457D02*
X132535715Y-105806028D01*
X132535715Y-105806028D02*
X132535715Y-107306028D01*
X131250000Y-107234600D02*
X131392857Y-107306028D01*
X131392857Y-107306028D02*
X131678572Y-107306028D01*
X131678572Y-107306028D02*
X131821429Y-107234600D01*
X131821429Y-107234600D02*
X131892857Y-107091742D01*
X131892857Y-107091742D02*
X131892857Y-106520314D01*
X131892857Y-106520314D02*
X131821429Y-106377457D01*
X131821429Y-106377457D02*
X131678572Y-106306028D01*
X131678572Y-106306028D02*
X131392857Y-106306028D01*
X131392857Y-106306028D02*
X131250000Y-106377457D01*
X131250000Y-106377457D02*
X131178572Y-106520314D01*
X131178572Y-106520314D02*
X131178572Y-106663171D01*
X131178572Y-106663171D02*
X131892857Y-106806028D01*
X129892858Y-106306028D02*
X129892858Y-107520314D01*
X129892858Y-107520314D02*
X129964286Y-107663171D01*
X129964286Y-107663171D02*
X130035715Y-107734600D01*
X130035715Y-107734600D02*
X130178572Y-107806028D01*
X130178572Y-107806028D02*
X130392858Y-107806028D01*
X130392858Y-107806028D02*
X130535715Y-107734600D01*
X129892858Y-107234600D02*
X130035715Y-107306028D01*
X130035715Y-107306028D02*
X130321429Y-107306028D01*
X130321429Y-107306028D02*
X130464286Y-107234600D01*
X130464286Y-107234600D02*
X130535715Y-107163171D01*
X130535715Y-107163171D02*
X130607143Y-107020314D01*
X130607143Y-107020314D02*
X130607143Y-106591742D01*
X130607143Y-106591742D02*
X130535715Y-106448885D01*
X130535715Y-106448885D02*
X130464286Y-106377457D01*
X130464286Y-106377457D02*
X130321429Y-106306028D01*
X130321429Y-106306028D02*
X130035715Y-106306028D01*
X130035715Y-106306028D02*
X129892858Y-106377457D01*
X128535715Y-107306028D02*
X128535715Y-106520314D01*
X128535715Y-106520314D02*
X128607143Y-106377457D01*
X128607143Y-106377457D02*
X128750000Y-106306028D01*
X128750000Y-106306028D02*
X129035715Y-106306028D01*
X129035715Y-106306028D02*
X129178572Y-106377457D01*
X128535715Y-107234600D02*
X128678572Y-107306028D01*
X128678572Y-107306028D02*
X129035715Y-107306028D01*
X129035715Y-107306028D02*
X129178572Y-107234600D01*
X129178572Y-107234600D02*
X129250000Y-107091742D01*
X129250000Y-107091742D02*
X129250000Y-106948885D01*
X129250000Y-106948885D02*
X129178572Y-106806028D01*
X129178572Y-106806028D02*
X129035715Y-106734600D01*
X129035715Y-106734600D02*
X128678572Y-106734600D01*
X128678572Y-106734600D02*
X128535715Y-106663171D01*
X126964286Y-107306028D02*
X127464286Y-106591742D01*
X127821429Y-107306028D02*
X127821429Y-105806028D01*
X127821429Y-105806028D02*
X127250000Y-105806028D01*
X127250000Y-105806028D02*
X127107143Y-105877457D01*
X127107143Y-105877457D02*
X127035714Y-105948885D01*
X127035714Y-105948885D02*
X126964286Y-106091742D01*
X126964286Y-106091742D02*
X126964286Y-106306028D01*
X126964286Y-106306028D02*
X127035714Y-106448885D01*
X127035714Y-106448885D02*
X127107143Y-106520314D01*
X127107143Y-106520314D02*
X127250000Y-106591742D01*
X127250000Y-106591742D02*
X127821429Y-106591742D01*
X126035714Y-105806028D02*
X125750000Y-105806028D01*
X125750000Y-105806028D02*
X125607143Y-105877457D01*
X125607143Y-105877457D02*
X125464286Y-106020314D01*
X125464286Y-106020314D02*
X125392857Y-106306028D01*
X125392857Y-106306028D02*
X125392857Y-106806028D01*
X125392857Y-106806028D02*
X125464286Y-107091742D01*
X125464286Y-107091742D02*
X125607143Y-107234600D01*
X125607143Y-107234600D02*
X125750000Y-107306028D01*
X125750000Y-107306028D02*
X126035714Y-107306028D01*
X126035714Y-107306028D02*
X126178572Y-107234600D01*
X126178572Y-107234600D02*
X126321429Y-107091742D01*
X126321429Y-107091742D02*
X126392857Y-106806028D01*
X126392857Y-106806028D02*
X126392857Y-106306028D01*
X126392857Y-106306028D02*
X126321429Y-106020314D01*
X126321429Y-106020314D02*
X126178572Y-105877457D01*
X126178572Y-105877457D02*
X126035714Y-105806028D01*
X124750000Y-107306028D02*
X124750000Y-105806028D01*
X124750000Y-105806028D02*
X124250000Y-106877457D01*
X124250000Y-106877457D02*
X123750000Y-105806028D01*
X123750000Y-105806028D02*
X123750000Y-107306028D01*
M02*
