%TF.GenerationSoftware,KiCad,Pcbnew,8.0.6*%
%TF.CreationDate,2025-01-07T17:27:52+02:00*%
%TF.ProjectId,SVI-328-MegaROM,5356492d-3332-4382-9d4d-656761524f4d,1.0*%
%TF.SameCoordinates,Original*%
%TF.FileFunction,Copper,L1,Top*%
%TF.FilePolarity,Positive*%
%FSLAX46Y46*%
G04 Gerber Fmt 4.6, Leading zero omitted, Abs format (unit mm)*
G04 Created by KiCad (PCBNEW 8.0.6) date 2025-01-07 17:27:52*
%MOMM*%
%LPD*%
G01*
G04 APERTURE LIST*
%TA.AperFunction,ComponentPad*%
%ADD10O,1.600000X1.600000*%
%TD*%
%TA.AperFunction,ComponentPad*%
%ADD11C,1.600000*%
%TD*%
%TA.AperFunction,ComponentPad*%
%ADD12R,1.600000X1.600000*%
%TD*%
%TA.AperFunction,ConnectorPad*%
%ADD13R,1.500000X11.000000*%
%TD*%
%TA.AperFunction,Conductor*%
%ADD14C,1.000000*%
%TD*%
%TA.AperFunction,Conductor*%
%ADD15C,0.250000*%
%TD*%
G04 APERTURE END LIST*
D10*
%TO.P,R2,2*%
%TO.N,Net-(C2-Pad1)*%
X117880000Y-115000000D03*
D11*
%TO.P,R2,1*%
%TO.N,Net-(U2-~{\u03A61})*%
X125500000Y-115000000D03*
%TD*%
%TO.P,R1,1*%
%TO.N,Net-(C2-Pad1)*%
X117880000Y-121500000D03*
D10*
%TO.P,R1,2*%
%TO.N,Net-(U2-\u03A60)*%
X125500000Y-121500000D03*
%TD*%
D12*
%TO.P,U2,1,Q12*%
%TO.N,unconnected-(U2-Q12-Pad1)*%
X148740000Y-114500000D03*
D10*
%TO.P,U2,2,Q13*%
%TO.N,unconnected-(U2-Q13-Pad2)*%
X146200000Y-114500000D03*
%TO.P,U2,3,Q14*%
%TO.N,unconnected-(U2-Q14-Pad3)*%
X143660000Y-114500000D03*
%TO.P,U2,4,Q6*%
%TO.N,Net-(U1-A16)*%
X141120000Y-114500000D03*
%TO.P,U2,5,Q5*%
%TO.N,Net-(U1-A15)*%
X138580000Y-114500000D03*
%TO.P,U2,6,Q7*%
%TO.N,Net-(U1-A17)*%
X136040000Y-114500000D03*
%TO.P,U2,7,Q4*%
%TO.N,Net-(U1-A14)*%
X133500000Y-114500000D03*
%TO.P,U2,8,VSS*%
%TO.N,GND*%
X130960000Y-114500000D03*
%TO.P,U2,9,~{\u03A60}*%
%TO.N,Net-(U2-~{\u03A60})*%
X130960000Y-122120000D03*
%TO.P,U2,10,\u03A60*%
%TO.N,Net-(U2-\u03A60)*%
X133500000Y-122120000D03*
%TO.P,U2,11,~{\u03A61}*%
%TO.N,Net-(U2-~{\u03A61})*%
X136040000Y-122120000D03*
%TO.P,U2,12,CLR*%
%TO.N,GND*%
X138580000Y-122120000D03*
%TO.P,U2,13,Q9*%
%TO.N,Net-(U1-A19)*%
X141120000Y-122120000D03*
%TO.P,U2,14,Q8*%
%TO.N,Net-(U1-A18)*%
X143660000Y-122120000D03*
%TO.P,U2,15,Q10*%
%TO.N,unconnected-(U2-Q10-Pad15)*%
X146200000Y-122120000D03*
%TO.P,U2,16,VDD*%
%TO.N,VCC*%
X148740000Y-122120000D03*
%TD*%
D12*
%TO.P,U1,1,A19*%
%TO.N,Net-(U1-A19)*%
X152900000Y-127260000D03*
D10*
%TO.P,U1,2,A16*%
%TO.N,Net-(U1-A16)*%
X150360000Y-127260000D03*
%TO.P,U1,3,A15*%
%TO.N,Net-(U1-A15)*%
X147820000Y-127260000D03*
%TO.P,U1,4,A12*%
%TO.N,A12*%
X145280000Y-127260000D03*
%TO.P,U1,5,A7*%
%TO.N,A7*%
X142740000Y-127260000D03*
%TO.P,U1,6,A6*%
%TO.N,A6*%
X140200000Y-127260000D03*
%TO.P,U1,7,A5*%
%TO.N,A5*%
X137660000Y-127260000D03*
%TO.P,U1,8,A4*%
%TO.N,A4*%
X135120000Y-127260000D03*
%TO.P,U1,9,A3*%
%TO.N,A3*%
X132580000Y-127260000D03*
%TO.P,U1,10,A2*%
%TO.N,A2*%
X130040000Y-127260000D03*
%TO.P,U1,11,A1*%
%TO.N,A1*%
X127500000Y-127260000D03*
%TO.P,U1,12,A0*%
%TO.N,A0*%
X124960000Y-127260000D03*
%TO.P,U1,13,D0*%
%TO.N,D0*%
X122420000Y-127260000D03*
%TO.P,U1,14,D1*%
%TO.N,D1*%
X119880000Y-127260000D03*
%TO.P,U1,15,D2*%
%TO.N,D2*%
X117340000Y-127260000D03*
%TO.P,U1,16,GND*%
%TO.N,GND*%
X114800000Y-127260000D03*
%TO.P,U1,17,D3*%
%TO.N,D3*%
X114800000Y-142500000D03*
%TO.P,U1,18,D4*%
%TO.N,D4*%
X117340000Y-142500000D03*
%TO.P,U1,19,D5*%
%TO.N,D5*%
X119880000Y-142500000D03*
%TO.P,U1,20,D6*%
%TO.N,D6*%
X122420000Y-142500000D03*
%TO.P,U1,21,D7*%
%TO.N,D7*%
X124960000Y-142500000D03*
%TO.P,U1,22,~{CE}*%
%TO.N,{slash}CCS1*%
X127500000Y-142500000D03*
%TO.P,U1,23,A10*%
%TO.N,A10*%
X130040000Y-142500000D03*
%TO.P,U1,24,~{OE}*%
%TO.N,{slash}CCS1*%
X132580000Y-142500000D03*
%TO.P,U1,25,A11*%
%TO.N,A11*%
X135120000Y-142500000D03*
%TO.P,U1,26,A9*%
%TO.N,A9*%
X137660000Y-142500000D03*
%TO.P,U1,27,A8*%
%TO.N,A8*%
X140200000Y-142500000D03*
%TO.P,U1,28,A13*%
%TO.N,A13*%
X142740000Y-142500000D03*
%TO.P,U1,29,A14*%
%TO.N,Net-(U1-A14)*%
X145280000Y-142500000D03*
%TO.P,U1,30,A17*%
%TO.N,Net-(U1-A17)*%
X147820000Y-142500000D03*
%TO.P,U1,31,A18*%
%TO.N,Net-(U1-A18)*%
X150360000Y-142500000D03*
%TO.P,U1,32,VCC*%
%TO.N,VCC*%
X152900000Y-142500000D03*
%TD*%
D11*
%TO.P,C2,2*%
%TO.N,Net-(U2-~{\u03A60})*%
X112740000Y-121000000D03*
%TO.P,C2,1*%
%TO.N,Net-(C2-Pad1)*%
X112740000Y-116000000D03*
%TD*%
D13*
%TO.P,J1,2,Pin_2*%
%TO.N,VCC*%
X151808691Y-156000414D03*
%TO.P,J1,4,Pin_4*%
%TO.N,A12*%
X149268691Y-156000414D03*
%TO.P,J1,6,Pin_6*%
%TO.N,A13*%
X146728691Y-156000414D03*
%TO.P,J1,8,Pin_8*%
%TO.N,A8*%
X144188691Y-156000414D03*
%TO.P,J1,10,Pin_10*%
%TO.N,A9*%
X141648691Y-156000414D03*
%TO.P,J1,12,Pin_12*%
%TO.N,A11*%
X139108691Y-156000414D03*
%TO.P,J1,14,Pin_14*%
%TO.N,A2*%
X136568691Y-156000414D03*
%TO.P,J1,16,Pin_16*%
%TO.N,A1*%
X134028691Y-156000414D03*
%TO.P,J1,18,Pin_18*%
%TO.N,D7*%
X131488691Y-156000414D03*
%TO.P,J1,20,Pin_20*%
%TO.N,D6*%
X128948691Y-156000414D03*
%TO.P,J1,22,Pin_22*%
%TO.N,D5*%
X126408691Y-156000414D03*
%TO.P,J1,24,Pin_24*%
%TO.N,D4*%
X123868691Y-156000414D03*
%TO.P,J1,26,Pin_26*%
%TO.N,unconnected-(J1-Pin_26-Pad26)*%
X121328691Y-156000414D03*
%TO.P,J1,28,Pin_28*%
%TO.N,unconnected-(J1-Pin_28-Pad28)*%
X118788691Y-156000414D03*
%TO.P,J1,30,Pin_30*%
%TO.N,GND*%
X116248691Y-156000414D03*
%TD*%
D11*
%TO.P,C1,1*%
%TO.N,VCC*%
X154500000Y-122000000D03*
%TO.P,C1,2*%
%TO.N,GND*%
X154500000Y-117000000D03*
%TD*%
D14*
%TO.N,GND*%
X154500000Y-117000000D02*
X150500000Y-113000000D01*
X150500000Y-113000000D02*
X132460000Y-113000000D01*
X132460000Y-113000000D02*
X130960000Y-114500000D01*
X138580000Y-122120000D02*
X130960000Y-114500000D01*
X138580000Y-122120000D02*
X135700000Y-125000000D01*
X135700000Y-125000000D02*
X117060000Y-125000000D01*
X117060000Y-125000000D02*
X114800000Y-127260000D01*
X112000000Y-141500000D02*
X112000000Y-144500000D01*
X116248691Y-148748691D02*
X116248691Y-156000414D01*
X114800000Y-127260000D02*
X114800000Y-138700000D01*
X112000000Y-144500000D02*
X116248691Y-148748691D01*
X114800000Y-138700000D02*
X112000000Y-141500000D01*
D15*
%TO.N,D7*%
X131488691Y-156000414D02*
X131488691Y-149028691D01*
X131488691Y-149028691D02*
X124960000Y-142500000D01*
%TO.N,D6*%
X128948691Y-156000414D02*
X128948691Y-149028691D01*
X128948691Y-149028691D02*
X122420000Y-142500000D01*
%TO.N,D5*%
X126408691Y-156000414D02*
X126408691Y-149028691D01*
X126408691Y-149028691D02*
X119880000Y-142500000D01*
%TO.N,D4*%
X123868691Y-149000000D02*
X123840000Y-149000000D01*
X123840000Y-149000000D02*
X117340000Y-142500000D01*
X123868691Y-156000414D02*
X123868691Y-149000000D01*
%TO.N,A1*%
X134028691Y-146635133D02*
X131455000Y-144061442D01*
X131455000Y-144061442D02*
X131455000Y-131215000D01*
X131455000Y-131215000D02*
X127500000Y-127260000D01*
%TO.N,A2*%
X136568691Y-146635133D02*
X133995000Y-144061442D01*
X133995000Y-131215000D02*
X130040000Y-127260000D01*
X133995000Y-144061442D02*
X133995000Y-131215000D01*
%TO.N,A11*%
X139108691Y-156000414D02*
X139108691Y-146488691D01*
X139108691Y-146488691D02*
X135120000Y-142500000D01*
%TO.N,A9*%
X141648691Y-156000414D02*
X141648691Y-146488691D01*
X141648691Y-146488691D02*
X137660000Y-142500000D01*
%TO.N,A8*%
X144188691Y-156000414D02*
X144188691Y-146488691D01*
X144188691Y-146488691D02*
X140200000Y-142500000D01*
%TO.N,A13*%
X146728691Y-156000414D02*
X146728691Y-146488691D01*
X146728691Y-146488691D02*
X142740000Y-142500000D01*
%TO.N,A12*%
X149268691Y-146635133D02*
X149048604Y-146415046D01*
X149048604Y-146415046D02*
X149048604Y-142048604D01*
X149048604Y-142048604D02*
X145280000Y-138280000D01*
X145280000Y-138280000D02*
X145280000Y-127260000D01*
%TO.N,Net-(U1-A16)*%
X150360000Y-127260000D02*
X150360000Y-126128630D01*
X145734009Y-123245000D02*
X145075000Y-122585991D01*
X150360000Y-126128630D02*
X147476370Y-123245000D01*
X147476370Y-123245000D02*
X145734009Y-123245000D01*
%TO.N,Net-(U1-A18)*%
X149235000Y-126735000D02*
X148000000Y-125500000D01*
X149235000Y-141375000D02*
X149235000Y-126735000D01*
X150360000Y-142500000D02*
X149235000Y-141375000D01*
X148000000Y-125500000D02*
X147000000Y-125500000D01*
X147000000Y-125500000D02*
X147000000Y-125460000D01*
X147000000Y-125460000D02*
X143660000Y-122120000D01*
%TO.N,Net-(U1-A15)*%
X147820000Y-127260000D02*
X147209009Y-127260000D01*
X147209009Y-127260000D02*
X142500000Y-122550991D01*
X142500000Y-122550991D02*
X142500000Y-118420000D01*
X142500000Y-118420000D02*
X138580000Y-114500000D01*
%TO.N,Net-(U1-A16)*%
X150360000Y-127260000D02*
X149749009Y-127260000D01*
X145075000Y-122585991D02*
X145075000Y-118455000D01*
X145075000Y-118455000D02*
X141120000Y-114500000D01*
%TO.N,Net-(C2-Pad1)*%
X117880000Y-115000000D02*
X117880000Y-121500000D01*
%TO.N,Net-(U2-~{\u03A61})*%
X136040000Y-122120000D02*
X128920000Y-115000000D01*
X128920000Y-115000000D02*
X125500000Y-115000000D01*
%TO.N,Net-(U2-\u03A60)*%
X133500000Y-122120000D02*
X131755000Y-120375000D01*
X131755000Y-120375000D02*
X126625000Y-120375000D01*
X126625000Y-120375000D02*
X125500000Y-121500000D01*
%TO.N,Net-(C2-Pad1)*%
X117880000Y-115000000D02*
X113740000Y-115000000D01*
X113740000Y-115000000D02*
X112740000Y-116000000D01*
%TO.N,Net-(U2-~{\u03A60})*%
X130960000Y-122120000D02*
X130160001Y-122919999D01*
X130160001Y-122919999D02*
X114659999Y-122919999D01*
X114659999Y-122919999D02*
X112740000Y-121000000D01*
D14*
%TO.N,VCC*%
X154500000Y-122000000D02*
X148860000Y-122000000D01*
X148860000Y-122000000D02*
X148740000Y-122120000D01*
X154500000Y-122000000D02*
X156000000Y-123500000D01*
X156000000Y-123500000D02*
X156000000Y-129500000D01*
X152900000Y-142500000D02*
X152900000Y-132600000D01*
X152900000Y-132600000D02*
X156000000Y-129500000D01*
X151808691Y-146635133D02*
X152900000Y-145543824D01*
X152900000Y-145543824D02*
X152900000Y-142500000D01*
X151808691Y-156000414D02*
X151808691Y-146635133D01*
D15*
%TO.N,A1*%
X134028691Y-156000414D02*
X134028691Y-146635133D01*
%TO.N,A2*%
X136568691Y-156000414D02*
X136568691Y-146635133D01*
%TO.N,A12*%
X149268691Y-156000414D02*
X149268691Y-146635133D01*
%TD*%
M02*
